<svg xmlns="http://www.w3.org/2000/svg" xmlns:xlink="http://www.w3.org/1999/xlink" width="300" zoomAndPan="magnify" viewBox="0 0 224.87999 225" height="300" preserveAspectRatio="xMidYMid meet" version="1.0"><defs><clipPath id="0ea2b7250f"><path d="M 97 42.175781 L 203 42.175781 L 203 177 L 97 177 Z M 97 42.175781 " clip-rule="nonzero"/></clipPath><clipPath id="382d700a24"><path d="M 0 49 L 224.761719 49 L 224.761719 177 L 0 177 Z M 0 49 " clip-rule="nonzero"/></clipPath><clipPath id="cc1f65d792"><path d="M 107 42.175781 L 143 42.175781 L 143 71 L 107 71 Z M 107 42.175781 " clip-rule="nonzero"/></clipPath><clipPath id="318a19dfb7"><path d="M 107 42.175781 L 143 42.175781 L 143 56 L 107 56 Z M 107 42.175781 " clip-rule="nonzero"/></clipPath></defs><path fill="#f4f4ed" d="M 127.648438 113.207031 L 106.472656 113.207031 C 105.058594 113.207031 103.914062 112.058594 103.914062 110.640625 L 103.914062 106.988281 C 103.914062 105.574219 105.058594 104.425781 106.472656 104.425781 L 127.648438 104.425781 C 129.0625 104.425781 130.207031 105.574219 130.207031 106.988281 L 130.207031 110.640625 C 130.207031 112.058594 129.0625 113.207031 127.648438 113.207031 Z M 127.648438 113.207031 " fill-opacity="1" fill-rule="nonzero"/><g clip-path="url(#0ea2b7250f)"><path fill="#974fff" d="M 196.089844 42.777344 L 196.089844 69.765625 L 103.789062 69.765625 L 103.789062 42.777344 L 97.449219 42.777344 L 97.449219 176.144531 L 103.789062 176.144531 L 103.789062 120.972656 L 196.089844 120.972656 L 196.089844 176.144531 L 202.429688 176.144531 L 202.429688 42.777344 Z M 196.089844 113.429688 L 103.789062 113.429688 L 103.789062 77.308594 L 196.089844 77.308594 Z M 196.089844 113.429688 " fill-opacity="1" fill-rule="nonzero"/></g><path fill="#f69426" d="M 124.386719 94.378906 C 124.386719 97.800781 123.386719 100.871094 121.792969 102.980469 C 121.074219 103.9375 119.945312 104.5 118.746094 104.5 L 114.582031 104.5 C 113.382812 104.5 112.253906 103.9375 111.53125 102.980469 C 109.941406 100.875 108.9375 97.800781 108.9375 94.378906 C 108.9375 88.019531 112.398438 82.867188 116.664062 82.867188 C 120.929688 82.867188 124.386719 88.019531 124.386719 94.378906 Z M 139.835938 91.796875 C 135.570312 91.796875 132.113281 96.949219 132.113281 103.308594 C 132.113281 106.730469 133.113281 109.804688 134.707031 111.914062 C 135.429688 112.871094 136.558594 113.429688 137.753906 113.429688 L 141.921875 113.429688 C 143.117188 113.429688 144.246094 112.871094 144.96875 111.914062 C 146.558594 109.804688 147.5625 106.730469 147.5625 103.308594 C 147.5625 96.949219 144.105469 91.796875 139.835938 91.796875 Z M 156.476562 91.796875 C 152.210938 91.796875 148.75 96.949219 148.75 103.308594 C 148.75 106.730469 149.753906 109.804688 151.34375 111.914062 C 152.066406 112.871094 153.195312 113.429688 154.394531 113.429688 L 158.558594 113.429688 C 159.757812 113.429688 160.886719 112.871094 161.605469 111.914062 C 163.199219 109.804688 164.199219 106.730469 164.199219 103.308594 C 164.199219 96.949219 160.742188 91.796875 156.476562 91.796875 Z M 156.476562 91.796875 " fill-opacity="1" fill-rule="nonzero"/><path fill="#000000" d="M 160.554688 94.472656 C 158.160156 95.558594 155.3125 95.390625 153.082031 93.980469 C 152.71875 93.75 153.054688 93.171875 153.421875 93.402344 C 155.433594 94.675781 158.039062 94.882812 160.21875 93.894531 C 160.605469 93.71875 160.945312 94.292969 160.554688 94.472656 Z M 130.863281 107.078125 L 130.863281 110.851562 C 130.863281 112.457031 129.558594 113.765625 127.953125 113.765625 L 106.363281 113.765625 C 104.757812 113.765625 103.453125 112.457031 103.453125 110.851562 L 103.453125 107.371094 C 103.328125 107.238281 103.335938 107 103.476562 106.875 C 103.582031 105.363281 104.828125 104.164062 106.363281 104.164062 L 127.953125 104.164062 C 129.558594 104.164062 130.863281 105.472656 130.863281 107.078125 Z M 130.195312 110.175781 C 129.160156 110.179688 128.125 110.1875 127.09375 110.195312 C 122.359375 110.230469 117.621094 110.261719 112.886719 110.296875 C 109.964844 110.316406 107.042969 110.335938 104.125 110.359375 L 104.125 110.851562 C 104.125 112.089844 105.128906 113.097656 106.363281 113.097656 L 127.953125 113.097656 C 129.1875 113.097656 130.195312 112.089844 130.195312 110.851562 Z M 130.195312 108.730469 C 129.164062 108.734375 128.132812 108.742188 127.101562 108.75 C 122.367188 108.785156 117.632812 108.816406 112.898438 108.851562 C 109.972656 108.871094 107.046875 108.894531 104.125 108.914062 L 104.125 109.6875 C 105.132812 109.683594 106.140625 109.675781 107.148438 109.667969 C 111.882812 109.632812 116.617188 109.601562 121.351562 109.566406 C 124.300781 109.546875 127.246094 109.523438 130.195312 109.503906 Z M 130.191406 107.058594 C 130.140625 107.109375 130.070312 107.144531 129.976562 107.144531 C 128.894531 107.160156 127.808594 107.171875 126.722656 107.183594 C 122.015625 107.242188 117.3125 107.300781 112.605469 107.355469 C 109.777344 107.390625 106.949219 107.425781 104.125 107.457031 L 104.125 108.246094 C 105.136719 108.238281 106.148438 108.230469 107.160156 108.222656 C 111.894531 108.1875 116.628906 108.15625 121.363281 108.121094 C 124.308594 108.101562 127.25 108.082031 130.195312 108.058594 L 130.195312 107.078125 C 130.195312 107.070312 130.191406 107.066406 130.191406 107.058594 Z M 130.109375 106.5 C 129.851562 105.542969 128.988281 104.832031 127.953125 104.832031 L 106.363281 104.832031 C 105.226562 104.832031 104.296875 105.6875 104.152344 106.789062 C 105.082031 106.777344 106.011719 106.765625 106.9375 106.753906 C 111.644531 106.695312 116.351562 106.640625 121.058594 106.582031 C 124.03125 106.546875 127.003906 106.511719 129.976562 106.476562 C 130.027344 106.476562 130.070312 106.484375 130.109375 106.5 Z M 143.578125 93.894531 C 141.402344 94.882812 138.796875 94.675781 136.78125 93.402344 C 136.417969 93.171875 136.082031 93.75 136.445312 93.980469 C 138.675781 95.390625 141.523438 95.558594 143.917969 94.472656 C 144.308594 94.292969 143.96875 93.71875 143.578125 93.894531 Z M 113.269531 85.050781 C 115.5 86.457031 118.347656 86.628906 120.742188 85.539062 C 121.132812 85.363281 120.792969 84.785156 120.40625 84.960938 C 118.226562 85.953125 115.621094 85.746094 113.609375 84.472656 C 113.242188 84.238281 112.90625 84.820312 113.269531 85.050781 Z M 113.269531 85.050781 " fill-opacity="1" fill-rule="nonzero"/><path fill="#f4f4ed" d="M 85.941406 156.457031 C 83.660156 159.257812 79.542969 159.371094 76.636719 157.527344 C 75.4375 156.773438 74.496094 155.789062 73.734375 154.675781 C 74.289062 161.574219 75.105469 168.441406 76.109375 175.277344 C 76.128906 175.425781 76.0625 175.539062 75.96875 175.613281 L 77.417969 175.613281 C 77.476562 175.835938 77.53125 176.0625 77.582031 176.285156 L 23.273438 176.285156 C 23.273438 176.0625 23.269531 175.835938 23.269531 175.613281 L 25.175781 175.613281 L 25.175781 175.585938 C 25.863281 173.175781 26.070312 170.664062 25.804688 168.164062 C 25.179688 168.257812 24.660156 168.078125 24.117188 167.664062 C 23.035156 166.839844 22.191406 165.695312 21.425781 164.582031 C 20.355469 163.042969 19.414062 161.414062 18.535156 159.757812 C 16.851562 156.5625 15.273438 153.203125 14.277344 149.71875 C 13.5625 147.21875 13.074219 144.632812 12.648438 142.074219 C 12.191406 139.324219 11.878906 136.542969 11.726562 133.757812 C 11.429688 128.175781 11.8125 122.542969 13.09375 117.097656 C 13.714844 114.484375 14.457031 111.765625 15.78125 109.410156 C 17.050781 107.15625 19.003906 105.464844 21.109375 104.015625 C 25.617188 100.910156 30.636719 98.523438 35.855469 96.882812 C 35.976562 96.84375 36.078125 96.875 36.152344 96.9375 C 36.25 96.890625 36.371094 96.894531 36.472656 96.941406 C 37.269531 95.929688 37.957031 94.832031 38.550781 93.6875 C 38.730469 93.339844 38.90625 92.976562 39.066406 92.617188 C 39.105469 92.535156 39.140625 92.457031 39.171875 92.375 C 39.265625 92.125 39.359375 91.867188 39.5 91.644531 C 39.769531 91.234375 40.308594 91.082031 40.722656 91.289062 C 41.445312 89.246094 41.667969 87.136719 41.433594 85.035156 C 41.011719 85.085938 40.597656 85.128906 40.175781 85.140625 C 38.171875 85.214844 36.136719 84.832031 34.375 83.847656 C 32.816406 82.984375 31.53125 81.675781 30.609375 80.152344 C 28.652344 76.886719 28.304688 72.742188 29.191406 69.085938 C 29.761719 66.734375 31.265625 64.457031 32.988281 62.796875 C 33.402344 62.386719 33.863281 62.046875 34.332031 61.695312 C 34.949219 61.234375 35.269531 60.691406 35.441406 59.949219 C 35.761719 58.589844 35.964844 57.261719 36.519531 55.964844 C 37.527344 53.613281 39.515625 51.527344 42.148438 51.179688 C 43.605469 50.992188 45.007812 51.476562 46.453125 51.5625 C 47.179688 51.609375 47.875 51.515625 48.550781 51.226562 C 49.160156 50.964844 49.714844 50.605469 50.304688 50.296875 C 51.59375 49.625 52.890625 49.527344 54.320312 49.699219 C 55.605469 49.859375 56.894531 50.195312 58.011719 50.886719 C 59.058594 51.527344 59.875 52.507812 60.542969 53.539062 C 60.609375 53.644531 60.679688 53.746094 60.738281 53.851562 C 63.152344 53.800781 65.4375 54.804688 67.09375 56.578125 C 68.59375 58.1875 69.457031 60.324219 69.496094 62.527344 C 69.515625 63.855469 69.25 65.140625 69.027344 66.4375 C 68.921875 67.089844 68.878906 67.746094 69.113281 68.375 C 69.300781 68.882812 69.617188 69.332031 69.902344 69.789062 C 70.472656 70.699219 70.871094 71.636719 70.738281 72.730469 C 70.613281 73.78125 70.097656 74.785156 69.375 75.546875 C 68.539062 76.441406 67.164062 76.882812 65.980469 77.101562 C 65.476562 78.300781 64.328125 79.164062 63.003906 79.09375 C 62.84375 79.769531 62.691406 80.453125 62.542969 81.128906 C 62.410156 81.722656 62.324219 82.335938 62.121094 82.910156 C 61.800781 83.789062 61.339844 84.617188 60.859375 85.414062 C 59.65625 87.40625 58.179688 89.40625 56.300781 90.808594 C 56.117188 90.941406 55.933594 91.070312 55.738281 91.1875 L 55.738281 91.195312 C 55.589844 91.832031 55.363281 92.523438 55.289062 93.152344 C 55.222656 93.734375 55.335938 94.324219 55.464844 94.898438 C 55.515625 94.886719 55.585938 94.894531 55.65625 94.921875 C 56.351562 95.1875 56.628906 95.8125 56.734375 96.488281 C 56.746094 96.546875 56.753906 96.601562 56.761719 96.660156 C 56.789062 96.84375 56.800781 97.015625 56.808594 97.191406 C 56.808594 97.222656 56.808594 97.257812 56.8125 97.292969 C 56.855469 97.304688 56.894531 97.332031 56.933594 97.363281 C 58.578125 98.945312 60.691406 99.875 62.824219 100.59375 C 66.5625 101.859375 70.738281 102.527344 73.90625 105.042969 C 77.402344 107.808594 78.347656 112.648438 78.773438 116.871094 C 80.5 116.996094 82.222656 117.132812 83.949219 117.257812 C 84.140625 117.273438 84.355469 117.464844 84.269531 117.679688 C 84.210938 117.835938 84.148438 117.980469 84.089844 118.136719 C 83.953125 118.484375 83.816406 118.839844 83.675781 119.1875 C 82.859375 121.25 82.042969 123.3125 81.226562 125.371094 C 82.070312 126.882812 82.964844 128.546875 82.878906 130.332031 C 82.859375 130.761719 82.777344 131.171875 82.65625 131.574219 C 82.664062 131.578125 82.671875 131.585938 82.671875 131.59375 C 82.820312 131.953125 82.964844 132.324219 83.113281 132.691406 C 83.339844 132.679688 83.59375 132.925781 83.453125 133.199219 C 83.425781 133.253906 83.398438 133.308594 83.375 133.363281 C 83.855469 134.605469 84.316406 135.859375 84.757812 137.117188 C 85.753906 139.9375 86.710938 142.804688 87.285156 145.738281 C 87.992188 149.308594 88.40625 153.4375 85.941406 156.457031 Z M 85.941406 156.457031 " fill-opacity="1" fill-rule="nonzero"/><g clip-path="url(#382d700a24)"><path fill="#000000" d="M 60.015625 75.101562 C 60.015625 75.804688 59.683594 76.367188 59.273438 76.367188 C 58.859375 76.367188 58.53125 75.804688 58.53125 75.101562 C 58.53125 74.402344 58.859375 73.832031 59.273438 73.832031 C 59.683594 73.832031 60.015625 74.402344 60.015625 75.101562 Z M 58.765625 70.960938 C 59.25 70.757812 59.710938 70.679688 60.152344 70.804688 C 60.199219 70.820312 60.246094 70.839844 60.296875 70.851562 L 60.3125 70.859375 C 60.316406 70.867188 60.324219 70.867188 60.324219 70.867188 C 60.34375 70.875 60.359375 70.886719 60.378906 70.894531 C 60.472656 70.941406 60.566406 70.992188 60.644531 71.054688 C 60.660156 71.0625 60.671875 71.074219 60.683594 71.082031 C 60.683594 71.082031 60.683594 71.082031 60.691406 71.085938 C 60.699219 71.085938 60.699219 71.09375 60.707031 71.101562 C 60.710938 71.101562 60.726562 71.109375 60.726562 71.113281 C 60.757812 71.140625 60.800781 71.175781 60.832031 71.207031 C 60.914062 71.28125 60.980469 71.363281 61.054688 71.441406 C 61.058594 71.457031 61.09375 71.496094 61.113281 71.515625 C 61.140625 71.554688 61.171875 71.597656 61.199219 71.636719 C 61.261719 71.730469 61.320312 71.824219 61.378906 71.917969 C 61.425781 72.003906 61.472656 72.09375 61.519531 72.1875 C 61.542969 72.226562 61.5625 72.273438 61.582031 72.320312 C 61.59375 72.339844 61.632812 72.433594 61.632812 72.441406 C 61.761719 72.75 61.867188 73.082031 61.957031 73.410156 C 61.996094 73.578125 62.035156 73.753906 62.0625 73.925781 C 62.089844 74.109375 62.316406 74.203125 62.476562 74.164062 C 62.664062 74.109375 62.730469 73.925781 62.703125 73.746094 C 62.628906 73.238281 62.46875 72.722656 62.277344 72.246094 C 61.914062 71.375 61.355469 70.519531 60.429688 70.195312 C 59.828125 69.984375 59.167969 70.078125 58.585938 70.3125 C 58.417969 70.382812 58.304688 70.539062 58.351562 70.726562 C 58.398438 70.886719 58.601562 71.027344 58.765625 70.960938 Z M 56.160156 80.578125 C 56.847656 80.453125 57.46875 79.949219 57.757812 79.3125 C 57.832031 79.144531 57.804688 78.953125 57.636719 78.851562 C 57.496094 78.769531 57.257812 78.8125 57.183594 78.972656 C 56.960938 79.453125 56.546875 79.808594 56.027344 79.921875 C 55.496094 80.03125 54.941406 79.820312 54.574219 79.441406 C 54.273438 79.125 53.808594 79.601562 54.101562 79.914062 C 54.628906 80.464844 55.410156 80.714844 56.160156 80.578125 Z M 57.101562 84.042969 C 56.207031 84.53125 55.136719 84.316406 54.195312 84.09375 C 53.332031 83.886719 52.429688 83.625 51.863281 82.898438 C 51.601562 82.5625 51.132812 83.039062 51.394531 83.371094 C 52.042969 84.210938 53.113281 84.53125 54.109375 84.757812 C 55.210938 85.019531 56.402344 85.1875 57.4375 84.617188 C 57.816406 84.417969 57.476562 83.835938 57.101562 84.042969 Z M 50.878906 73.238281 C 50.472656 73.238281 50.136719 73.808594 50.136719 74.503906 C 50.136719 75.207031 50.472656 75.769531 50.878906 75.769531 C 51.285156 75.769531 51.621094 75.207031 51.621094 74.503906 C 51.621094 73.808594 51.285156 73.238281 50.878906 73.238281 Z M 47.925781 72.359375 C 48.734375 71.328125 49.871094 70.539062 51.1875 70.351562 C 51.628906 70.289062 52.09375 70.296875 52.523438 70.429688 C 52.671875 70.476562 52.835938 70.566406 52.9375 70.644531 C 53.066406 70.746094 53.125 70.832031 53.160156 70.945312 C 53.285156 71.355469 53.933594 71.179688 53.800781 70.765625 C 53.480469 69.761719 52.1875 69.574219 51.285156 69.667969 C 49.753906 69.835938 48.390625 70.691406 47.449219 71.882812 C 47.1875 72.21875 47.65625 72.703125 47.925781 72.359375 Z M 37.714844 75.523438 C 37.542969 75.554688 37.441406 75.769531 37.480469 75.9375 C 37.535156 76.125 37.714844 76.199219 37.898438 76.171875 C 38.257812 76.113281 38.617188 76.105469 38.980469 76.160156 C 38.980469 76.207031 38.992188 76.257812 39.019531 76.304688 C 39.402344 77.117188 39.632812 78 39.695312 78.898438 C 39.707031 79.078125 39.84375 79.234375 40.027344 79.234375 C 40.203125 79.234375 40.375 79.078125 40.363281 78.898438 C 40.304688 78.027344 40.109375 77.183594 39.769531 76.378906 C 40.597656 76.695312 41.320312 77.308594 41.726562 78.113281 C 41.921875 78.496094 42.496094 78.15625 42.300781 77.773438 C 41.460938 76.117188 39.527344 75.199219 37.714844 75.523438 Z M 224.90625 175.613281 L 224.90625 176.285156 L 0 176.285156 L 0 175.613281 L 25.175781 175.613281 C 25.175781 175.601562 25.175781 175.59375 25.175781 175.585938 C 25.863281 173.175781 26.070312 170.664062 25.804688 168.164062 C 25.183594 168.257812 24.660156 168.078125 24.117188 167.664062 C 23.035156 166.839844 22.195312 165.695312 21.425781 164.582031 C 20.355469 163.042969 19.414062 161.414062 18.539062 159.757812 C 16.851562 156.5625 15.273438 153.203125 14.277344 149.71875 C 13.5625 147.21875 13.074219 144.632812 12.648438 142.074219 C 12.191406 139.324219 11.878906 136.542969 11.726562 133.757812 C 11.429688 128.175781 11.8125 122.542969 13.097656 117.097656 C 13.71875 114.484375 14.460938 111.765625 15.78125 109.410156 C 17.054688 107.15625 19.003906 105.464844 21.109375 104.015625 C 25.617188 100.910156 30.636719 98.523438 35.859375 96.882812 C 35.976562 96.84375 36.078125 96.875 36.152344 96.9375 C 36.253906 96.890625 36.371094 96.894531 36.472656 96.941406 C 37.269531 95.929688 37.957031 94.832031 38.550781 93.6875 C 38.730469 93.339844 38.90625 92.976562 39.066406 92.617188 C 39.105469 92.535156 39.140625 92.457031 39.171875 92.375 C 39.265625 92.125 39.359375 91.867188 39.5 91.644531 C 39.769531 91.234375 40.308594 91.082031 40.722656 91.289062 C 41.445312 89.246094 41.667969 87.136719 41.433594 85.035156 C 41.011719 85.085938 40.597656 85.128906 40.175781 85.140625 C 38.171875 85.214844 36.136719 84.832031 34.375 83.847656 C 32.816406 82.984375 31.53125 81.675781 30.609375 80.152344 C 28.652344 76.886719 28.304688 72.742188 29.191406 69.085938 C 29.761719 66.734375 31.265625 64.457031 32.988281 62.796875 C 33.40625 62.386719 33.867188 62.046875 34.332031 61.695312 C 34.949219 61.234375 35.269531 60.691406 35.441406 59.949219 C 35.765625 58.589844 35.964844 57.261719 36.519531 55.964844 C 37.527344 53.613281 39.515625 51.527344 42.148438 51.179688 C 43.605469 50.992188 45.007812 51.476562 46.453125 51.5625 C 47.183594 51.609375 47.878906 51.515625 48.550781 51.226562 C 49.160156 50.964844 49.714844 50.605469 50.304688 50.296875 C 51.59375 49.625 52.890625 49.527344 54.320312 49.699219 C 55.605469 49.859375 56.894531 50.195312 58.011719 50.886719 C 59.0625 51.527344 59.875 52.507812 60.546875 53.539062 C 60.613281 53.644531 60.679688 53.746094 60.738281 53.851562 C 63.152344 53.800781 65.4375 54.804688 67.097656 56.578125 C 68.59375 58.1875 69.457031 60.324219 69.496094 62.527344 C 69.515625 63.855469 69.25 65.140625 69.027344 66.4375 C 68.921875 67.089844 68.882812 67.746094 69.113281 68.375 C 69.300781 68.882812 69.617188 69.332031 69.902344 69.789062 C 70.472656 70.699219 70.875 71.636719 70.738281 72.730469 C 70.613281 73.78125 70.097656 74.785156 69.375 75.546875 C 68.539062 76.441406 67.164062 76.882812 65.980469 77.101562 C 65.480469 78.300781 64.328125 79.164062 63.003906 79.09375 C 62.84375 79.769531 62.691406 80.453125 62.542969 81.128906 C 62.410156 81.722656 62.324219 82.335938 62.121094 82.910156 C 61.800781 83.789062 61.339844 84.617188 60.859375 85.414062 C 59.65625 87.40625 58.179688 89.40625 56.300781 90.808594 C 56.121094 90.941406 55.933594 91.070312 55.738281 91.1875 L 55.738281 91.195312 C 55.589844 91.832031 55.363281 92.523438 55.289062 93.152344 C 55.222656 93.734375 55.335938 94.324219 55.464844 94.898438 C 55.519531 94.886719 55.585938 94.894531 55.660156 94.921875 C 56.414062 95.207031 56.675781 95.925781 56.761719 96.660156 C 56.789062 96.84375 56.800781 97.015625 56.808594 97.191406 C 56.808594 97.222656 56.808594 97.257812 56.816406 97.292969 C 56.855469 97.304688 56.894531 97.332031 56.933594 97.363281 C 58.578125 98.945312 60.691406 99.875 62.824219 100.59375 C 66.5625 101.859375 70.738281 102.527344 73.910156 105.042969 C 77.40625 107.808594 78.347656 112.648438 78.773438 116.871094 C 80.5 116.996094 82.222656 117.132812 83.949219 117.257812 C 84.144531 117.273438 84.355469 117.464844 84.269531 117.679688 C 84.210938 117.835938 84.148438 117.980469 84.089844 118.136719 C 83.957031 118.484375 83.816406 118.839844 83.675781 119.1875 C 82.859375 121.25 82.042969 123.3125 81.226562 125.371094 C 82.070312 126.882812 82.964844 128.546875 82.878906 130.332031 C 82.859375 130.761719 82.777344 131.171875 82.660156 131.574219 C 82.664062 131.578125 82.671875 131.585938 82.671875 131.59375 C 82.820312 131.953125 82.964844 132.324219 83.113281 132.691406 C 83.339844 132.679688 83.59375 132.925781 83.453125 133.199219 C 83.425781 133.253906 83.402344 133.308594 83.375 133.363281 C 83.855469 134.605469 84.316406 135.859375 84.757812 137.117188 C 85.753906 139.9375 86.710938 142.804688 87.285156 145.738281 C 87.992188 149.308594 88.40625 153.4375 85.941406 156.457031 C 83.660156 159.257812 79.542969 159.371094 76.636719 157.527344 C 75.4375 156.773438 74.496094 155.789062 73.734375 154.675781 C 74.289062 161.574219 75.105469 168.441406 76.109375 175.277344 C 76.128906 175.425781 76.0625 175.539062 75.96875 175.613281 Z M 82.332031 132.523438 C 82.292969 132.617188 82.25 132.71875 82.210938 132.820312 C 81.875 133.644531 81.570312 134.488281 81.289062 135.332031 C 81.804688 134.699219 82.257812 134.023438 82.644531 133.308594 C 82.546875 133.046875 82.4375 132.785156 82.332031 132.523438 Z M 80.90625 126.175781 C 80.566406 127.046875 80.226562 127.914062 79.878906 128.78125 C 80 128.792969 80.125 128.859375 80.246094 128.992188 C 80.492188 129.269531 80.480469 129.746094 80.238281 130.011719 C 79.90625 130.402344 79.203125 130.21875 78.761719 130.179688 C 77.363281 130.074219 75.980469 129.804688 74.648438 129.390625 C 73.460938 129.027344 72.265625 128.332031 71.007812 128.21875 C 71.195312 128.425781 71.335938 128.6875 71.347656 128.972656 C 71.355469 129.296875 71.132812 129.550781 70.894531 129.730469 C 70.753906 129.839844 70.59375 129.933594 70.417969 130.003906 C 72.960938 131.277344 75.753906 132 78.609375 132.101562 C 79.042969 132.117188 79.042969 132.785156 78.609375 132.773438 C 75.691406 132.664062 72.832031 131.941406 70.21875 130.660156 C 70.246094 130.917969 70.183594 131.183594 70.0625 131.417969 C 69.945312 131.652344 69.730469 131.835938 69.507812 131.976562 C 69.371094 132.054688 69.207031 132.128906 69.046875 132.164062 C 71.453125 133.835938 74.324219 134.742188 77.257812 134.726562 C 77.691406 134.726562 77.683594 135.398438 77.257812 135.398438 C 74.644531 135.410156 72.054688 134.726562 69.804688 133.433594 C 69.804688 133.890625 69.589844 134.351562 69.175781 134.566406 C 69.136719 134.59375 69.089844 134.613281 69.042969 134.628906 C 70.511719 135.710938 72.304688 136.429688 73.953125 137.105469 C 74.765625 137.433594 75.578125 137.75 76.382812 138.078125 C 76.722656 138.222656 77.34375 138.371094 77.484375 138.765625 C 77.625 139.128906 77.109375 139.308594 76.902344 139.046875 C 76.890625 139.042969 76.863281 139.027344 76.828125 139.007812 C 76.75 138.96875 76.664062 138.925781 76.582031 138.886719 C 76.316406 138.761719 76.035156 138.652344 75.761719 138.546875 C 74.910156 138.203125 74.054688 137.871094 73.214844 137.515625 C 71.917969 136.972656 70.566406 136.402344 69.347656 135.640625 C 69.382812 135.925781 69.324219 136.253906 69.15625 136.503906 C 69.023438 136.710938 68.8125 136.890625 68.605469 137.019531 C 68.929688 137.253906 69.253906 137.480469 69.578125 137.703125 C 70.972656 138.671875 72.378906 139.617188 73.800781 140.535156 C 74.210938 140.804688 74.636719 141.136719 75.117188 141.265625 C 75.152344 141.277344 75.191406 141.285156 75.226562 141.292969 C 76.128906 141.464844 77.191406 141.257812 78.007812 140.871094 C 79.074219 140.367188 79.4375 139.1875 79.765625 138.125 C 79.925781 137.613281 80.070312 137.097656 80.226562 136.582031 C 80.21875 136.578125 80.226562 136.570312 80.226562 136.5625 C 80.238281 136.535156 80.246094 136.507812 80.253906 136.484375 C 80.507812 135.613281 80.765625 134.742188 81.082031 133.882812 C 81.363281 133.121094 81.722656 132.355469 81.964844 131.574219 C 82.144531 130.984375 82.25 130.378906 82.203125 129.75 C 82.105469 128.476562 81.515625 127.292969 80.90625 126.175781 Z M 70.566406 128.734375 L 70.566406 128.726562 C 70.511719 128.671875 70.480469 128.632812 70.425781 128.59375 C 70.410156 128.578125 70.390625 128.558594 70.371094 128.546875 C 70.359375 128.539062 70.351562 128.53125 70.339844 128.523438 C 70.230469 128.445312 70.109375 128.371094 69.984375 128.316406 C 69.964844 128.3125 69.949219 128.296875 69.9375 128.289062 C 69.316406 128.410156 68.585938 128.664062 68.800781 129.109375 C 69.070312 129.277344 69.34375 129.4375 69.617188 129.582031 C 69.625 129.578125 69.625 129.578125 69.628906 129.578125 C 69.761719 129.542969 69.890625 129.496094 70.023438 129.441406 C 70.039062 129.4375 70.050781 129.4375 70.0625 129.429688 L 70.097656 129.417969 C 70.097656 129.410156 70.105469 129.410156 70.105469 129.410156 C 70.152344 129.390625 70.203125 129.363281 70.25 129.34375 C 70.304688 129.308594 70.359375 129.28125 70.410156 129.25 C 70.433594 129.234375 70.457031 129.222656 70.480469 129.207031 C 70.484375 129.203125 70.5 129.195312 70.511719 129.1875 C 70.511719 129.183594 70.511719 129.183594 70.519531 129.183594 C 70.53125 129.175781 70.539062 129.167969 70.539062 129.167969 C 70.546875 129.15625 70.558594 129.148438 70.558594 129.140625 C 70.578125 129.128906 70.597656 129.109375 70.621094 129.089844 C 70.621094 129.089844 70.625 129.082031 70.632812 129.074219 L 70.640625 129.066406 L 70.640625 129.0625 L 70.644531 129.0625 L 70.644531 129.054688 C 70.652344 129.054688 70.652344 129.054688 70.652344 129.046875 C 70.652344 129.042969 70.660156 129.035156 70.660156 129.027344 C 70.660156 129.027344 70.667969 129.019531 70.671875 129.015625 L 70.671875 129 C 70.671875 128.996094 70.671875 128.988281 70.679688 128.980469 L 70.679688 128.972656 C 70.679688 128.96875 70.671875 128.96875 70.671875 128.960938 C 70.667969 128.933594 70.660156 128.90625 70.652344 128.878906 C 70.652344 128.875 70.652344 128.875 70.652344 128.875 C 70.652344 128.875 70.652344 128.875 70.652344 128.867188 L 70.644531 128.859375 L 70.644531 128.851562 C 70.632812 128.847656 70.632812 128.832031 70.625 128.828125 C 70.613281 128.804688 70.597656 128.78125 70.585938 128.757812 C 70.578125 128.753906 70.574219 128.738281 70.574219 128.738281 L 70.574219 128.734375 C 70.574219 128.734375 70.574219 128.734375 70.566406 128.734375 Z M 68.535156 129.730469 C 68.074219 130.160156 68.097656 130.734375 68.347656 131.265625 C 68.460938 131.273438 68.558594 131.339844 68.628906 131.433594 C 68.628906 131.433594 68.628906 131.433594 68.628906 131.4375 C 68.628906 131.4375 68.632812 131.445312 68.640625 131.453125 L 68.640625 131.460938 C 68.648438 131.460938 68.652344 131.464844 68.667969 131.484375 L 68.675781 131.484375 L 68.675781 131.492188 L 68.679688 131.492188 C 68.6875 131.5 68.695312 131.5 68.695312 131.5 C 68.695312 131.5 68.707031 131.507812 68.714844 131.511719 L 68.734375 131.519531 C 68.742188 131.519531 68.746094 131.527344 68.753906 131.527344 L 68.761719 131.527344 C 68.765625 131.527344 68.789062 131.527344 68.789062 131.527344 C 68.800781 131.527344 68.8125 131.527344 68.820312 131.527344 L 68.828125 131.527344 C 68.835938 131.527344 68.839844 131.527344 68.847656 131.527344 C 68.855469 131.527344 68.867188 131.519531 68.867188 131.519531 C 68.902344 131.511719 68.933594 131.507812 68.960938 131.492188 C 68.980469 131.492188 68.996094 131.484375 69.015625 131.480469 C 69.023438 131.480469 69.023438 131.480469 69.023438 131.480469 C 69.023438 131.480469 69.027344 131.480469 69.027344 131.472656 C 69.042969 131.472656 69.046875 131.464844 69.046875 131.464844 C 69.121094 131.425781 69.183594 131.386719 69.253906 131.339844 C 69.253906 131.339844 69.269531 131.324219 69.277344 131.324219 C 69.28125 131.324219 69.296875 131.3125 69.296875 131.3125 C 69.308594 131.296875 69.328125 131.285156 69.34375 131.265625 C 69.371094 131.246094 69.390625 131.21875 69.414062 131.199219 L 69.429688 131.183594 L 69.429688 131.175781 C 69.4375 131.171875 69.4375 131.171875 69.4375 131.171875 L 69.4375 131.164062 C 69.449219 131.152344 69.457031 131.128906 69.46875 131.117188 C 69.476562 131.105469 69.484375 131.089844 69.496094 131.070312 C 69.496094 131.070312 69.496094 131.070312 69.496094 131.0625 C 69.496094 131.0625 69.496094 131.0625 69.503906 131.058594 L 69.503906 131.050781 L 69.507812 131.042969 C 69.515625 131.03125 69.515625 131.023438 69.515625 131.023438 C 69.515625 130.988281 69.535156 130.957031 69.542969 130.921875 C 69.542969 130.910156 69.542969 130.894531 69.550781 130.890625 C 69.550781 130.882812 69.550781 130.875 69.550781 130.863281 C 69.554688 130.816406 69.554688 130.769531 69.554688 130.722656 C 69.550781 130.703125 69.550781 130.683594 69.550781 130.660156 C 69.550781 130.648438 69.550781 130.648438 69.550781 130.648438 C 69.535156 130.609375 69.53125 130.574219 69.515625 130.527344 C 69.515625 130.527344 69.507812 130.519531 69.507812 130.507812 C 69.507812 130.5 69.503906 130.5 69.503906 130.496094 L 69.503906 130.488281 C 69.496094 130.480469 69.496094 130.480469 69.496094 130.480469 C 69.496094 130.472656 69.496094 130.472656 69.496094 130.472656 C 69.488281 130.46875 69.488281 130.46875 69.488281 130.46875 C 69.46875 130.425781 69.441406 130.386719 69.421875 130.347656 C 69.414062 130.347656 69.414062 130.339844 69.414062 130.339844 L 69.410156 130.332031 C 69.394531 130.320312 69.390625 130.3125 69.375 130.300781 C 69.34375 130.261719 69.316406 130.21875 69.300781 130.171875 L 69.296875 130.171875 C 69.042969 130.03125 68.789062 129.886719 68.535156 129.730469 Z M 67.859375 132.824219 C 67.746094 133.222656 67.980469 133.609375 68.234375 133.890625 C 68.292969 133.898438 68.351562 133.925781 68.398438 133.972656 C 68.398438 133.972656 68.398438 133.972656 68.40625 133.972656 L 68.40625 133.976562 L 68.414062 133.976562 C 68.421875 133.976562 68.421875 133.984375 68.425781 133.992188 C 68.441406 133.996094 68.453125 134.003906 68.472656 134.011719 L 68.472656 134.019531 L 68.480469 134.019531 L 68.480469 134.023438 C 68.488281 134.023438 68.488281 134.023438 68.488281 134.023438 C 68.5 134.023438 68.507812 134.023438 68.519531 134.03125 C 68.527344 134.03125 68.527344 134.03125 68.535156 134.039062 C 68.535156 134.039062 68.546875 134.039062 68.585938 134.042969 C 68.605469 134.042969 68.632812 134.042969 68.652344 134.039062 C 68.667969 134.039062 68.695312 134.039062 68.707031 134.03125 C 68.734375 134.03125 68.753906 134.023438 68.78125 134.019531 C 68.789062 134.011719 68.800781 134.011719 68.808594 134.011719 C 68.808594 134.011719 68.808594 134.011719 68.8125 134.003906 C 68.820312 134.003906 68.820312 133.996094 68.828125 133.996094 C 68.828125 133.996094 68.828125 133.996094 68.835938 133.996094 C 68.859375 133.976562 68.894531 133.957031 68.921875 133.945312 C 68.921875 133.945312 68.921875 133.945312 68.929688 133.9375 C 68.933594 133.929688 68.933594 133.929688 68.933594 133.929688 C 68.941406 133.925781 68.949219 133.925781 68.953125 133.917969 C 68.96875 133.902344 68.988281 133.882812 68.996094 133.878906 L 69 133.878906 C 69.007812 133.871094 69.007812 133.863281 69.015625 133.863281 C 69.007812 133.855469 69.015625 133.855469 69.023438 133.851562 C 69.023438 133.835938 69.035156 133.824219 69.042969 133.816406 C 69.054688 133.789062 69.070312 133.769531 69.074219 133.742188 C 69.074219 133.742188 69.074219 133.742188 69.082031 133.738281 L 69.082031 133.730469 C 69.101562 133.675781 69.113281 133.628906 69.121094 133.582031 C 69.121094 133.582031 69.128906 133.574219 69.128906 133.5625 C 69.121094 133.554688 69.128906 133.550781 69.128906 133.535156 C 69.128906 133.515625 69.128906 133.496094 69.136719 133.476562 C 69.136719 133.429688 69.128906 133.386719 69.128906 133.347656 C 69.128906 133.339844 69.128906 133.328125 69.128906 133.320312 C 69.128906 133.308594 69.121094 133.300781 69.121094 133.300781 C 69.113281 133.273438 69.109375 133.242188 69.101562 133.214844 C 69.089844 133.175781 69.082031 133.125 69.0625 133.085938 C 69.054688 133.078125 69.054688 133.074219 69.054688 133.066406 C 69.046875 133.054688 69.046875 133.054688 69.046875 133.054688 L 69.042969 133.046875 C 69.035156 133.019531 69.015625 132.992188 69 132.964844 C 68.996094 132.953125 68.988281 132.9375 68.988281 132.925781 C 68.828125 132.824219 68.667969 132.71875 68.511719 132.597656 C 68.492188 132.589844 68.480469 132.585938 68.460938 132.578125 C 68.191406 132.4375 67.945312 132.523438 67.859375 132.824219 Z M 67.324219 135.257812 C 67.238281 135.734375 67.539062 136.179688 67.886719 136.476562 C 67.890625 136.484375 67.90625 136.488281 67.910156 136.496094 L 67.917969 136.503906 C 67.957031 136.496094 68 136.507812 68.039062 136.535156 C 68.039062 136.535156 68.039062 136.535156 68.046875 136.535156 L 68.050781 136.535156 C 68.058594 136.535156 68.066406 136.535156 68.074219 136.535156 C 68.085938 136.535156 68.105469 136.53125 68.105469 136.53125 C 68.105469 136.53125 68.117188 136.523438 68.125 136.523438 C 68.140625 136.515625 68.164062 136.503906 68.171875 136.503906 C 68.210938 136.476562 68.253906 136.457031 68.292969 136.429688 C 68.3125 136.414062 68.332031 136.402344 68.351562 136.390625 L 68.375 136.367188 C 68.40625 136.34375 68.441406 136.316406 68.472656 136.28125 C 68.5 136.253906 68.527344 136.226562 68.554688 136.203125 L 68.558594 136.203125 C 68.558594 136.203125 68.558594 136.203125 68.566406 136.195312 L 68.574219 136.1875 C 68.574219 136.1875 68.566406 136.179688 68.574219 136.175781 C 68.585938 136.15625 68.601562 136.132812 68.613281 136.113281 C 68.613281 136.109375 68.640625 136.054688 68.640625 136.054688 C 68.648438 136.039062 68.652344 136.027344 68.652344 136.027344 C 68.660156 136 68.667969 135.96875 68.675781 135.941406 C 68.675781 135.933594 68.679688 135.921875 68.679688 135.914062 C 68.6875 135.859375 68.695312 135.804688 68.6875 135.753906 C 68.6875 135.726562 68.6875 135.699219 68.6875 135.664062 C 68.6875 135.660156 68.679688 135.652344 68.679688 135.644531 C 68.675781 135.597656 68.652344 135.546875 68.632812 135.492188 C 68.628906 135.476562 68.628906 135.464844 68.621094 135.457031 C 68.613281 135.4375 68.601562 135.417969 68.585938 135.398438 C 68.535156 135.296875 68.472656 135.203125 68.425781 135.097656 C 68.40625 135.050781 68.386719 135.007812 68.386719 134.960938 C 68.238281 134.855469 68.09375 134.734375 67.953125 134.613281 C 67.945312 134.605469 67.9375 134.601562 67.933594 134.59375 C 67.644531 134.734375 67.390625 134.902344 67.324219 135.257812 Z M 60.144531 117.191406 C 59.808594 118.070312 59.480469 118.941406 59.148438 119.816406 C 58.152344 122.449219 57.148438 125.089844 56.144531 127.726562 C 56.058594 127.957031 55.972656 128.191406 55.886719 128.417969 C 55.90625 128.53125 55.859375 128.644531 55.773438 128.710938 C 55.429688 129.609375 55.089844 130.515625 54.75 131.414062 C 54.742188 131.4375 54.734375 131.460938 54.722656 131.480469 C 54.167969 132.945312 53.613281 134.414062 53.050781 135.878906 C 52.929688 136.207031 52.804688 136.542969 52.675781 136.871094 C 51.789062 139.214844 50.90625 141.546875 50.007812 143.890625 C 49.941406 144.070312 49.871094 144.257812 49.800781 144.441406 C 49.453125 145.359375 49.105469 146.277344 48.757812 147.199219 C 49.574219 147.234375 50.382812 147.261719 51.199219 147.292969 C 55.398438 147.453125 59.597656 147.617188 63.792969 147.769531 C 66.375 147.875 68.953125 147.96875 71.527344 148.070312 C 72.355469 145.949219 73.1875 143.824219 74.007812 141.699219 C 74.035156 141.632812 74.074219 141.585938 74.121094 141.546875 C 73.699219 141.300781 73.292969 141.003906 72.890625 140.742188 C 71.308594 139.703125 69.722656 138.652344 68.1875 137.535156 C 68.011719 137.40625 67.839844 137.285156 67.679688 137.160156 C 67.316406 136.878906 66.996094 136.570312 66.800781 136.132812 C 66.566406 135.613281 66.5625 134.875 66.976562 134.433594 C 67.125 134.277344 67.316406 134.160156 67.515625 134.058594 C 67.195312 133.570312 67.023438 132.964844 67.308594 132.410156 C 67.449219 132.136719 67.671875 131.960938 67.917969 131.894531 C 67.785156 131.667969 67.664062 131.425781 67.585938 131.179688 C 67.335938 130.414062 67.550781 129.722656 68.113281 129.230469 C 68.113281 129.207031 68.117188 129.195312 68.125 129.175781 C 67.945312 128.503906 68.613281 128.015625 69.242188 127.78125 C 70.3125 127.386719 71.414062 127.519531 72.476562 127.890625 C 73.863281 128.363281 75.183594 128.914062 76.621094 129.207031 C 77.359375 129.355469 78.09375 129.464844 78.835938 129.515625 C 78.847656 129.515625 78.863281 129.515625 78.875 129.523438 C 79.054688 129.0625 79.234375 128.59375 79.421875 128.128906 C 80.765625 124.714844 82.125 121.304688 83.472656 117.894531 C 82.660156 117.828125 81.84375 117.769531 81.035156 117.707031 C 76.78125 117.386719 72.53125 117.066406 68.285156 116.75 C 67.167969 116.664062 66.058594 116.582031 64.945312 116.496094 C 64.808594 116.570312 64.644531 116.546875 64.535156 116.46875 C 63.210938 116.367188 61.890625 116.265625 60.566406 116.167969 C 60.457031 116.515625 60.265625 116.871094 60.144531 117.191406 Z M 47.402344 144.398438 C 47.476562 144.3125 47.5625 144.28125 47.644531 144.285156 C 47.683594 144.265625 47.738281 144.253906 47.785156 144.253906 C 47.832031 144.253906 47.871094 144.253906 47.917969 144.246094 C 47.9375 144.246094 47.964844 144.246094 47.992188 144.238281 C 48.003906 144.238281 48.011719 144.238281 48.011719 144.238281 C 48.085938 144.226562 48.15625 144.210938 48.230469 144.191406 C 48.3125 144.171875 48.386719 144.152344 48.464844 144.125 C 48.5 144.113281 48.527344 144.105469 48.550781 144.09375 C 48.550781 144.09375 48.558594 144.085938 48.574219 144.078125 C 48.59375 144.070312 48.613281 144.066406 48.625 144.058594 C 48.78125 143.984375 48.921875 143.898438 49.054688 143.804688 C 49.066406 143.789062 49.074219 143.789062 49.074219 143.789062 C 49.085938 143.777344 49.101562 143.765625 49.113281 143.757812 C 49.140625 143.730469 49.167969 143.703125 49.199219 143.675781 C 49.261719 143.625 49.316406 143.5625 49.375 143.503906 C 49.402344 143.46875 49.441406 143.441406 49.476562 143.429688 C 50.308594 141.230469 51.144531 139.027344 51.976562 136.835938 C 51.726562 136.992188 51.460938 137.105469 51.179688 137.1875 C 50.792969 137.292969 50.371094 137.328125 49.996094 137.152344 C 49.996094 137.621094 49.949219 138.097656 49.863281 138.558594 C 49.433594 140.789062 47.824219 142.792969 45.550781 143.292969 C 45.128906 143.390625 44.957031 142.746094 45.378906 142.652344 C 47.550781 142.167969 48.972656 140.207031 49.269531 138.070312 C 49.5625 135.96875 48.734375 134.003906 48.324219 131.980469 C 48.230469 131.886719 48.136719 131.792969 48.042969 131.699219 C 47.5625 131.191406 47.128906 130.640625 46.742188 130.058594 C 46.5 129.699219 47.082031 129.363281 47.316406 129.722656 C 47.722656 130.332031 48.191406 130.902344 48.707031 131.417969 C 48.726562 131.4375 48.753906 131.464844 48.773438 131.484375 C 48.839844 131.507812 48.894531 131.554688 48.921875 131.625 C 49.113281 131.8125 49.308594 131.988281 49.515625 132.164062 C 49.683594 132.296875 49.816406 132.402344 49.921875 132.585938 C 50.277344 133.179688 50.476562 133.890625 50.683594 134.554688 C 50.71875 134.667969 50.679688 134.792969 50.597656 134.875 C 50.398438 135.074219 50.195312 135.277344 50.003906 135.472656 C 49.957031 135.519531 49.917969 135.546875 49.871094 135.558594 C 49.890625 135.699219 49.910156 135.847656 49.929688 135.988281 C 49.984375 136.039062 50.015625 136.109375 50.015625 136.203125 C 50.015625 136.394531 50.203125 136.535156 50.390625 136.582031 C 50.652344 136.648438 50.9375 136.570312 51.179688 136.484375 C 51.652344 136.316406 52.082031 135.992188 52.382812 135.59375 C 52.410156 135.550781 52.441406 135.523438 52.484375 135.5 C 52.636719 135.089844 52.796875 134.679688 52.949219 134.273438 C 52.925781 134.230469 52.902344 134.179688 52.898438 134.117188 C 52.691406 131.929688 51.191406 130.050781 49.917969 128.359375 C 49.65625 128.015625 50.238281 127.679688 50.492188 128.023438 C 51.660156 129.570312 52.910156 131.21875 53.386719 133.121094 C 53.621094 132.503906 53.855469 131.894531 54.085938 131.285156 C 54.066406 130.636719 53.59375 130.132812 53.324219 129.5625 C 52.972656 128.804688 52.578125 128.078125 52.28125 127.300781 C 52.214844 127.125 52.347656 126.929688 52.511719 126.882812 C 52.695312 126.832031 52.859375 126.949219 52.925781 127.117188 C 53.078125 127.519531 53.265625 127.910156 53.453125 128.296875 C 53.640625 128.660156 53.800781 129.042969 53.992188 129.402344 C 54.148438 129.699219 54.328125 129.980469 54.476562 130.265625 C 54.710938 129.636719 54.949219 129.015625 55.183594 128.390625 C 55.175781 128.371094 55.171875 128.351562 55.164062 128.332031 C 55.15625 128.324219 55.15625 128.3125 55.152344 128.304688 C 55.152344 128.296875 55.144531 128.289062 55.144531 128.285156 C 55.136719 128.277344 55.136719 128.277344 55.136719 128.269531 C 55.125 128.238281 55.109375 128.203125 55.089844 128.171875 C 55.023438 128.023438 54.941406 127.882812 54.863281 127.734375 C 54.695312 127.453125 54.527344 127.1875 54.375 126.898438 C 54.289062 126.730469 54.335938 126.542969 54.496094 126.441406 C 54.640625 126.347656 54.871094 126.410156 54.949219 126.5625 C 55.125 126.890625 55.332031 127.199219 55.511719 127.527344 C 55.644531 127.171875 55.785156 126.808594 55.917969 126.457031 C 55.960938 126.347656 56 126.234375 56.046875 126.128906 C 56 126.132812 55.953125 126.128906 55.90625 126.113281 C 55.53125 126 55.230469 125.753906 54.964844 125.472656 C 54.734375 125.230469 54.507812 124.875 54.207031 124.726562 C 53.832031 124.554688 53.53125 124.996094 53.179688 125.074219 C 52.816406 125.164062 52.464844 125.015625 52.15625 124.847656 C 51.914062 124.71875 51.480469 124.332031 51.1875 124.425781 C 50.890625 124.527344 50.820312 125.109375 50.652344 125.351562 C 50.238281 125.980469 49.476562 126.085938 48.78125 126.105469 C 47.929688 126.128906 47.0625 126.046875 46.421875 126.710938 C 46.085938 127.050781 45.84375 127.480469 45.652344 127.929688 C 45.457031 128.378906 45.308594 128.859375 45.175781 129.300781 C 44.554688 131.292969 44.226562 133.375 43.378906 135.289062 C 42.550781 137.160156 41.152344 138.640625 39.726562 140.066406 C 39.882812 140.355469 40.035156 140.640625 40.183594 140.9375 C 41.472656 143.414062 42.761719 145.902344 44.046875 148.378906 C 44.105469 148.3125 44.167969 148.238281 44.226562 148.164062 C 45.285156 146.910156 46.339844 145.660156 47.402344 144.398438 Z M 49.984375 134.546875 C 49.816406 133.984375 49.640625 133.375 49.328125 132.886719 C 49.292969 132.839844 49.300781 132.839844 49.222656 132.777344 C 49.207031 132.765625 49.195312 132.757812 49.179688 132.746094 C 49.347656 133.433594 49.542969 134.125 49.714844 134.816406 C 49.800781 134.722656 49.894531 134.632812 49.984375 134.546875 Z M 36.519531 97.949219 C 36.527344 97.960938 36.53125 97.96875 36.53125 97.980469 C 37.214844 100.398438 37.863281 102.824219 38.484375 105.253906 C 39.707031 110.066406 40.832031 114.90625 41.765625 119.777344 C 42.582031 123.976562 43.277344 128.21875 43.632812 132.484375 C 44.066406 130.871094 44.386719 129.222656 45.050781 127.679688 C 45.070312 127.628906 45.089844 127.574219 45.117188 127.519531 C 45.476562 126.722656 46.011719 125.941406 46.859375 125.632812 C 47.617188 125.355469 48.425781 125.496094 49.199219 125.410156 C 49.621094 125.363281 49.984375 125.230469 50.183594 124.835938 C 50.351562 124.484375 50.425781 124.105469 50.777344 123.882812 C 51.441406 123.480469 52.042969 124.078125 52.617188 124.339844 C 53.089844 124.546875 53.277344 124.191406 53.699219 124.058594 C 53.988281 123.964844 54.28125 124.003906 54.542969 124.152344 C 55.097656 124.460938 55.390625 125.175781 55.972656 125.425781 C 55.035156 123.402344 51.914062 116.019531 50.992188 113.828125 C 50.84375 113.480469 51 113.078125 51.339844 112.917969 C 51.441406 112.871094 51.539062 112.851562 51.640625 112.851562 C 51.910156 112.851562 52.164062 113.011719 52.28125 113.273438 L 56.929688 123.789062 C 57.550781 122.15625 58.164062 120.519531 58.785156 118.894531 C 59.035156 118.242188 59.28125 117.601562 59.527344 116.957031 C 59.582031 116.808594 59.636719 116.667969 59.691406 116.527344 C 59.675781 116.507812 59.667969 116.488281 59.667969 116.46875 C 59.414062 114.734375 59.042969 113.011719 58.640625 111.296875 C 58.003906 108.539062 57.289062 105.796875 56.539062 103.066406 C 56.472656 102.832031 56.386719 102.589844 56.339844 102.347656 C 56.199219 101.710938 56.273438 100.96875 56.246094 100.3125 C 56.21875 99.582031 56.199219 98.859375 56.171875 98.128906 C 56.160156 97.792969 56.191406 97.25 56.132812 96.75 C 56.078125 96.304688 55.960938 95.890625 55.664062 95.671875 C 55.644531 95.742188 55.589844 95.8125 55.503906 95.859375 C 54.609375 96.3125 53.539062 96.46875 52.550781 96.332031 C 51.199219 96.152344 49.847656 95.964844 48.511719 95.691406 C 45.863281 95.132812 43.363281 94.144531 41.210938 92.476562 C 41.046875 92.355469 41.046875 92.148438 41.125 92.007812 C 41.132812 91.984375 41.144531 91.964844 41.160156 91.945312 C 41.171875 91.925781 41.1875 91.914062 41.207031 91.898438 C 41.292969 91.820312 41.417969 91.804688 41.546875 91.898438 C 43.570312 93.464844 45.898438 94.429688 48.390625 94.980469 C 49.640625 95.253906 50.914062 95.441406 52.183594 95.617188 C 53.105469 95.738281 54.039062 95.757812 54.910156 95.394531 C 54.890625 95.367188 54.871094 95.328125 54.863281 95.289062 C 54.710938 94.59375 54.546875 93.867188 54.621094 93.152344 C 54.683594 92.617188 54.824219 92.09375 54.957031 91.5625 C 54.589844 91.703125 54.195312 91.792969 53.785156 91.796875 C 52.644531 91.8125 51.515625 91.371094 50.511719 90.867188 C 48.390625 89.800781 46.453125 88.25 44.777344 86.574219 C 44.46875 86.273438 44.941406 85.796875 45.25 86.105469 C 47.046875 87.898438 49.1875 89.636719 51.546875 90.613281 C 52.46875 90.996094 53.550781 91.308594 54.542969 91.015625 C 54.757812 90.949219 54.96875 90.859375 55.171875 90.753906 C 55.792969 90.425781 56.347656 89.941406 56.847656 89.46875 C 58.464844 87.925781 59.824219 86.023438 60.867188 84.046875 C 61.28125 83.273438 61.5625 82.527344 61.742188 81.671875 C 62.101562 79.984375 62.496094 78.300781 62.90625 76.628906 C 63.300781 75.011719 63.714844 73.398438 64.160156 71.804688 C 63.554688 71.542969 63 71.148438 62.523438 70.707031 C 62.183594 70.390625 61.863281 70.015625 61.628906 69.605469 C 61.375 69.136719 61.320312 68.636719 61.234375 68.113281 C 61.039062 66.960938 60.351562 66.183594 59.535156 65.394531 C 58.8125 64.691406 58.058594 63.96875 57.675781 63.007812 C 57.410156 62.339844 57.351562 61.601562 57.484375 60.898438 C 56.835938 61.550781 56.265625 62.265625 55.800781 63.054688 C 55.023438 64.371094 54.007812 65.835938 52.4375 66.246094 C 52.023438 66.351562 51.601562 66.351562 51.167969 66.332031 C 50.679688 66.296875 50.191406 66.257812 49.769531 66.546875 C 49.046875 67.035156 48.621094 68.007812 48.164062 68.722656 C 47.222656 70.230469 46.179688 71.71875 44.628906 72.640625 C 43.605469 73.257812 42.355469 73.660156 41.1875 73.464844 C 41.199219 73.480469 41.207031 73.5 41.21875 73.511719 C 41.464844 73.867188 40.886719 74.203125 40.644531 73.847656 C 40.214844 73.230469 39.679688 72.574219 38.898438 72.449219 C 38.15625 72.328125 37.628906 72.847656 37.261719 73.433594 C 36.5 74.65625 36.152344 76.179688 36.351562 77.613281 C 36.539062 78.929688 37.207031 80.175781 38.222656 81.042969 C 39.195312 81.863281 41.070312 82.582031 41.914062 81.1875 C 42.136719 80.820312 42.714844 81.15625 42.488281 81.523438 C 42.25 81.917969 41.933594 82.195312 41.578125 82.367188 C 41.78125 83.058594 41.925781 83.746094 42.027344 84.445312 C 42.128906 84.566406 42.160156 84.746094 42.082031 84.859375 C 42.363281 87.191406 42.109375 89.542969 41.246094 91.785156 C 41.234375 91.824219 41.210938 91.859375 41.191406 91.886719 C 41.179688 91.90625 41.160156 91.917969 41.144531 91.933594 C 41.125 91.953125 41.097656 91.964844 41.078125 91.980469 C 41.050781 91.984375 41.03125 91.992188 41.003906 92 C 40.890625 92.140625 40.691406 92.1875 40.550781 92.007812 C 40.242188 91.609375 39.976562 92.105469 39.796875 92.542969 C 39.722656 92.742188 39.660156 92.925781 39.621094 93.003906 C 39.347656 93.613281 39.046875 94.210938 38.71875 94.785156 C 38.082031 95.90625 37.34375 96.964844 36.519531 97.949219 Z M 60.585938 175.613281 C 60.578125 175.582031 60.566406 175.539062 60.570312 175.5 C 60.773438 173.457031 60.945312 171.414062 61.078125 169.363281 C 61.535156 162.363281 61.519531 155.351562 61.242188 148.34375 C 59.574219 148.277344 57.90625 148.21875 56.238281 148.152344 C 53.585938 148.050781 50.933594 147.949219 48.277344 147.851562 C 48.085938 147.84375 47.878906 147.640625 47.957031 147.425781 C 47.964844 147.40625 47.976562 147.386719 47.976562 147.367188 C 48.089844 146.953125 48.296875 146.535156 48.453125 146.136719 C 48.644531 145.621094 48.839844 145.109375 49.035156 144.601562 C 48.734375 144.753906 48.40625 144.855469 48.0625 144.894531 C 47.992188 144.910156 47.910156 144.914062 47.835938 144.914062 C 47.703125 145.082031 47.554688 145.242188 47.421875 145.410156 C 47.203125 145.671875 46.988281 145.933594 46.765625 146.1875 C 46.828125 146.242188 46.867188 146.316406 46.882812 146.410156 C 47.121094 148.554688 47.347656 150.695312 47.542969 152.847656 C 48.230469 160.390625 48.621094 167.964844 48.699219 175.546875 C 48.699219 175.574219 48.691406 175.59375 48.6875 175.613281 Z M 60.585938 175.613281 " fill-opacity="1" fill-rule="nonzero"/></g><g clip-path="url(#cc1f65d792)"><path fill="#009b5f" d="M 119.425781 53.464844 C 119.5 53.65625 119.527344 53.859375 119.511719 54.0625 L 118.394531 68.753906 C 118.3125 69.824219 117.421875 70.648438 116.351562 70.648438 L 111.019531 70.648438 C 109.941406 70.648438 109.046875 69.8125 108.972656 68.734375 L 107.980469 53.996094 C 107.96875 53.789062 108 53.582031 108.078125 53.390625 C 108.078125 53.390625 110.023438 48.570312 110.550781 47.300781 C 110.628906 47.105469 110.617188 46.886719 110.511719 46.703125 L 108.90625 43.921875 C 108.648438 43.46875 108.972656 42.90625 109.492188 42.90625 L 118.003906 42.90625 C 118.523438 42.90625 118.847656 43.46875 118.589844 43.921875 L 117.023438 46.636719 C 116.917969 46.820312 116.902344 47.039062 116.984375 47.234375 C 117.515625 48.519531 119.425781 53.464844 119.425781 53.464844 Z M 142.71875 52.964844 C 142.71875 52.964844 140.808594 48.015625 140.277344 46.734375 C 140.195312 46.539062 140.210938 46.320312 140.316406 46.136719 L 141.882812 43.417969 C 142.140625 42.96875 141.816406 42.40625 141.296875 42.40625 L 132.785156 42.40625 C 132.265625 42.40625 131.941406 42.96875 132.199219 43.417969 L 133.804688 46.203125 C 133.910156 46.386719 133.921875 46.605469 133.84375 46.800781 C 133.316406 48.070312 131.371094 52.886719 131.371094 52.886719 C 131.304688 53.054688 131.273438 53.238281 131.277344 53.417969 C 131.261719 53.335938 131.246094 53.257812 131.214844 53.179688 C 131.214844 53.179688 129.304688 48.230469 128.773438 46.949219 C 128.691406 46.753906 128.707031 46.535156 128.8125 46.351562 L 130.378906 43.632812 C 130.636719 43.183594 130.3125 42.621094 129.792969 42.621094 L 121.28125 42.621094 C 120.761719 42.621094 120.4375 43.183594 120.695312 43.632812 L 122.300781 46.417969 C 122.40625 46.601562 122.417969 46.820312 122.339844 47.015625 C 121.8125 48.285156 119.867188 53.101562 119.867188 53.101562 C 119.789062 53.296875 119.757812 53.503906 119.769531 53.710938 L 120.765625 68.449219 C 120.835938 69.527344 121.730469 70.363281 122.808594 70.363281 L 128.140625 70.363281 C 129.210938 70.363281 130.101562 69.535156 130.183594 68.464844 L 131.296875 53.835938 L 132.265625 68.234375 C 132.339844 69.3125 133.234375 70.148438 134.3125 70.148438 L 139.644531 70.148438 C 140.714844 70.148438 141.605469 69.320312 141.6875 68.25 L 142.804688 53.558594 C 142.820312 53.355469 142.789062 53.152344 142.71875 52.964844 Z M 142.71875 52.964844 " fill-opacity="1" fill-rule="nonzero"/></g><g clip-path="url(#318a19dfb7)"><path fill="#000000" d="M 131.164062 53.777344 C 130.65625 54.144531 129.960938 54.28125 129.359375 54.398438 C 127.632812 54.734375 125.84375 54.816406 124.085938 54.761719 C 123.246094 54.738281 122.398438 54.675781 121.566406 54.53125 C 120.996094 54.433594 120.390625 54.300781 119.894531 53.992188 C 119.53125 53.765625 119.867188 53.1875 120.234375 53.414062 C 120.777344 53.753906 121.476562 53.855469 122.097656 53.941406 C 123.753906 54.171875 125.464844 54.148438 127.128906 54.015625 C 127.90625 53.957031 128.683594 53.867188 129.445312 53.699219 C 129.914062 53.597656 130.429688 53.488281 130.828125 53.199219 C 131.175781 52.945312 131.507812 53.527344 131.164062 53.777344 Z M 125.597656 46.714844 C 124.664062 46.71875 123.714844 46.679688 122.796875 46.507812 C 122.375 46.429688 122.195312 47.074219 122.617188 47.15625 C 124.558594 47.515625 126.640625 47.46875 128.582031 47.15625 C 129.007812 47.085938 128.828125 46.441406 128.40625 46.507812 C 127.480469 46.660156 126.535156 46.710938 125.597656 46.714844 Z M 120.839844 43.421875 C 122.347656 43.9375 124.039062 43.996094 125.621094 43.972656 C 127.066406 43.949219 128.667969 43.878906 130.03125 43.339844 C 130.425781 43.183594 130.253906 42.535156 129.851562 42.695312 C 128.539062 43.214844 127.015625 43.277344 125.621094 43.300781 C 124.09375 43.328125 122.472656 43.277344 121.015625 42.777344 C 120.609375 42.636719 120.433594 43.285156 120.839844 43.421875 Z M 131.398438 53.78125 C 131.03125 53.550781 131.367188 52.972656 131.734375 53.199219 C 132.28125 53.539062 132.980469 53.640625 133.601562 53.726562 C 135.257812 53.957031 136.96875 53.933594 138.632812 53.804688 C 139.410156 53.742188 140.1875 53.652344 140.945312 53.484375 C 141.414062 53.382812 141.933594 53.273438 142.332031 52.984375 C 142.679688 52.734375 143.011719 53.3125 142.667969 53.5625 C 142.160156 53.933594 141.464844 54.070312 140.863281 54.183594 C 139.136719 54.519531 137.34375 54.601562 135.589844 54.546875 C 134.75 54.523438 133.902344 54.460938 133.070312 54.316406 C 132.5 54.21875 131.894531 54.089844 131.398438 53.78125 Z M 134.121094 46.941406 C 133.699219 46.863281 133.878906 46.214844 134.300781 46.292969 C 135.21875 46.464844 136.167969 46.503906 137.101562 46.5 C 138.039062 46.496094 138.980469 46.445312 139.910156 46.292969 C 140.332031 46.226562 140.511719 46.871094 140.085938 46.941406 C 138.144531 47.253906 136.058594 47.300781 134.121094 46.941406 Z M 132.34375 43.207031 C 131.9375 43.070312 132.113281 42.421875 132.519531 42.5625 C 133.976562 43.0625 135.597656 43.113281 137.125 43.085938 C 138.519531 43.0625 140.042969 43 141.355469 42.480469 C 141.757812 42.320312 141.929688 42.96875 141.535156 43.125 C 140.171875 43.664062 138.570312 43.734375 137.125 43.757812 C 135.542969 43.78125 133.851562 43.722656 132.34375 43.207031 Z M 108.105469 54.28125 C 107.738281 54.054688 108.074219 53.472656 108.441406 53.703125 C 108.988281 54.039062 109.6875 54.140625 110.308594 54.226562 C 111.964844 54.457031 113.675781 54.433594 115.339844 54.304688 C 116.117188 54.242188 116.894531 54.152344 117.652344 53.988281 C 118.121094 53.886719 118.640625 53.773438 119.039062 53.488281 C 119.386719 53.234375 119.71875 53.816406 119.375 54.066406 C 118.867188 54.433594 118.171875 54.570312 117.570312 54.6875 C 115.84375 55.019531 114.050781 55.101562 112.296875 55.050781 C 111.457031 55.023438 110.609375 54.960938 109.777344 54.820312 C 109.207031 54.722656 108.601562 54.589844 108.105469 54.28125 Z M 110.828125 47.441406 C 110.40625 47.363281 110.585938 46.714844 111.007812 46.796875 C 111.925781 46.96875 112.875 47.003906 113.808594 47 C 114.746094 46.996094 115.691406 46.945312 116.617188 46.796875 C 117.039062 46.726562 117.21875 47.375 116.792969 47.441406 C 114.851562 47.753906 112.765625 47.800781 110.828125 47.441406 Z M 109.050781 43.710938 C 108.644531 43.570312 108.820312 42.921875 109.226562 43.0625 C 110.683594 43.5625 112.304688 43.617188 113.832031 43.589844 C 115.226562 43.566406 116.75 43.5 118.0625 42.980469 C 118.464844 42.820312 118.636719 43.46875 118.242188 43.625 C 116.878906 44.167969 115.277344 44.234375 113.832031 44.257812 C 112.25 44.285156 110.558594 44.226562 109.050781 43.710938 Z M 109.050781 43.710938 " fill-opacity="1" fill-rule="nonzero"/></g><path fill="#f4f4ed" d="M 190.285156 118.304688 C 190.300781 119.082031 190.230469 119.863281 190.144531 120.640625 C 190.125 120.882812 190.089844 121.117188 190.066406 121.359375 C 189.710938 124.460938 189.183594 127.554688 188.5 130.601562 C 188.199219 131.960938 187.871094 133.316406 187.429688 134.640625 C 187.175781 135.390625 186.902344 136.363281 186.300781 136.929688 C 186.175781 137.058594 185.992188 137.09375 185.8125 137.105469 C 186.480469 139.824219 187.058594 142.566406 187.539062 145.316406 C 189.28125 155.351562 189.769531 165.601562 188.980469 175.753906 C 188.96875 175.914062 188.867188 176.015625 188.75 176.054688 C 188.742188 176.125 188.722656 176.191406 188.6875 176.25 C 188.441406 176.640625 187.710938 176.503906 187.773438 176.042969 C 187.683594 176.035156 187.605469 176.035156 187.523438 176.035156 C 187.304688 176.035156 187.082031 176.027344 186.863281 176.027344 C 186.363281 176.023438 185.859375 176.015625 185.367188 176.007812 C 184.390625 175.996094 183.421875 175.980469 182.449219 175.96875 C 175.605469 175.875 168.753906 175.78125 161.910156 175.695312 C 161.816406 175.976562 161.292969 175.929688 161.253906 175.554688 C 160.917969 172.492188 160.683594 169.425781 160.542969 166.351562 C 160.304688 160.910156 160.363281 155.457031 160.738281 150.035156 C 161.066406 145.191406 161.472656 140.214844 163.351562 135.691406 L 130.589844 135.691406 L 130.589844 111.691406 L 163.765625 111.691406 C 163.925781 110.84375 164.128906 109.996094 164.367188 109.160156 C 165.222656 106.214844 166.566406 103.425781 168.160156 100.808594 C 168.546875 100.164062 169.007812 99.535156 169.289062 98.832031 C 169.617188 98 169.441406 97.238281 169.316406 96.386719 C 169.234375 95.835938 169.269531 95.300781 169.429688 94.8125 C 169.621094 94.183594 170.023438 93.632812 170.632812 93.253906 C 170.332031 92.75 169.976562 92.289062 169.570312 91.867188 C 168.832031 92.21875 168.078125 92.554688 167.296875 92.824219 C 166.425781 93.117188 165.492188 93.492188 164.890625 92.574219 C 164.28125 91.652344 163.8125 90.585938 163.332031 89.589844 C 162.851562 88.578125 162.394531 87.550781 161.976562 86.507812 C 161.773438 86.011719 161.46875 85.449219 161.527344 84.894531 C 161.574219 84.484375 161.820312 84.128906 162.027344 83.78125 C 162.328125 83.292969 162.636719 82.789062 162.777344 82.21875 C 162.90625 81.683594 162.8125 81.160156 162.675781 80.632812 C 162.597656 80.34375 162.53125 80.054688 162.46875 79.769531 C 161.105469 80.199219 159.835938 79.234375 159.207031 78.058594 C 158.597656 76.921875 158.433594 75.589844 158.679688 74.324219 C 158.894531 73.191406 159.460938 72.160156 160.285156 71.355469 C 160.792969 70.859375 161.320312 70.417969 161.667969 69.78125 C 161.980469 69.207031 162.175781 68.5625 162.449219 67.960938 C 163.492188 65.695312 165.539062 63.867188 168.078125 63.597656 C 169.414062 63.457031 170.585938 63.832031 171.734375 64.488281 C 172.46875 64.90625 173.132812 65.050781 173.972656 64.9375 C 174.664062 64.84375 175.34375 64.722656 176.046875 64.710938 C 177.296875 64.691406 178.59375 64.957031 179.589844 65.742188 C 180.011719 66.070312 180.359375 66.472656 180.621094 66.921875 C 180.679688 66.90625 180.753906 66.914062 180.828125 66.960938 C 182.136719 67.71875 183.5 68.429688 184.757812 69.285156 C 185.761719 69.96875 186.601562 70.832031 187.183594 71.90625 C 188.199219 73.800781 188.320312 75.957031 187.632812 77.972656 C 187.25 79.078125 186.851562 80.15625 187.25 81.316406 C 187.558594 82.191406 188.160156 82.9375 188.695312 83.679688 C 189.234375 84.425781 189.777344 85.199219 190.023438 86.105469 C 190.257812 86.976562 190.230469 87.96875 189.90625 88.804688 C 189.605469 89.59375 189.003906 90.386719 188.234375 90.78125 C 188.113281 92.105469 187.726562 93.695312 186.507812 94.378906 C 185.714844 94.828125 184.777344 95.015625 183.855469 95.035156 C 184.023438 95.269531 184.167969 95.515625 184.316406 95.769531 C 184.949219 96.890625 185.484375 98.082031 186.035156 99.246094 C 186.589844 100.398438 187.117188 101.570312 187.605469 102.757812 C 188.609375 105.234375 189.324219 107.789062 189.703125 110.433594 C 190.078125 113.039062 190.226562 115.679688 190.285156 118.304688 Z M 190.285156 118.304688 " fill-opacity="1" fill-rule="nonzero"/><path fill="#000000" d="M 172.8125 82.421875 C 173.152344 81.476562 173.789062 80.671875 174.628906 80.136719 C 174.785156 80.035156 174.992188 80.109375 175.085938 80.257812 C 175.183594 80.410156 175.109375 80.621094 174.964844 80.714844 C 174.757812 80.847656 174.65625 80.921875 174.476562 81.089844 C 174.4375 81.121094 174.402344 81.167969 174.363281 81.207031 C 174.535156 81.699219 174.703125 82.195312 174.875 82.683594 C 174.9375 82.855469 174.804688 83.042969 174.644531 83.097656 C 174.460938 83.152344 174.289062 83.023438 174.226562 82.863281 C 174.109375 82.507812 173.988281 82.152344 173.859375 81.796875 C 173.808594 81.886719 173.753906 81.964844 173.707031 82.050781 C 173.652344 82.152344 173.605469 82.246094 173.558594 82.347656 C 173.546875 82.375 173.535156 82.394531 173.527344 82.421875 C 173.519531 82.433594 173.519531 82.429688 173.519531 82.433594 C 173.519531 82.433594 173.519531 82.433594 173.511719 82.449219 C 173.492188 82.5 173.472656 82.546875 173.453125 82.601562 C 173.394531 82.777344 173.234375 82.875 173.046875 82.835938 C 172.878906 82.796875 172.75 82.589844 172.8125 82.421875 Z M 165.492188 80.25 C 165.175781 80.292969 164.996094 80.8125 165.078125 81.410156 C 165.15625 82.003906 165.472656 82.453125 165.777344 82.40625 C 166.085938 82.367188 166.273438 81.851562 166.191406 81.253906 C 166.113281 80.660156 165.800781 80.210938 165.492188 80.25 Z M 164.460938 78.101562 C 164.28125 78.121094 164.128906 78.234375 164.128906 78.4375 C 164.128906 78.597656 164.28125 78.789062 164.460938 78.769531 C 165.503906 78.648438 166.566406 79.160156 167.097656 80.089844 C 167.308594 80.464844 167.882812 80.128906 167.671875 79.753906 C 167.042969 78.644531 165.730469 77.953125 164.460938 78.101562 Z M 186.300781 136.929688 C 186.175781 137.058594 185.992188 137.09375 185.8125 137.105469 C 186.480469 139.824219 187.058594 142.566406 187.539062 145.316406 C 189.28125 155.351562 189.769531 165.601562 188.980469 175.753906 C 188.96875 175.914062 188.867188 176.015625 188.75 176.054688 C 188.742188 176.125 188.722656 176.191406 188.6875 176.25 C 188.441406 176.640625 187.710938 176.503906 187.773438 176.042969 C 187.683594 176.035156 187.605469 176.035156 187.523438 176.035156 C 187.304688 176.035156 187.082031 176.027344 186.863281 176.027344 C 186.363281 176.023438 185.859375 176.015625 185.367188 176.007812 C 184.390625 175.996094 183.421875 175.980469 182.449219 175.96875 C 175.605469 175.875 168.753906 175.78125 161.910156 175.695312 C 161.816406 175.976562 161.292969 175.929688 161.253906 175.554688 C 160.917969 172.492188 160.683594 169.425781 160.542969 166.351562 C 160.304688 160.910156 160.363281 155.457031 160.738281 150.035156 C 161.066406 145.191406 161.472656 140.214844 163.351562 135.691406 L 130.589844 135.691406 L 130.589844 111.691406 L 163.765625 111.691406 C 163.925781 110.84375 164.128906 109.996094 164.367188 109.160156 C 165.222656 106.214844 166.566406 103.425781 168.160156 100.808594 C 168.546875 100.164062 169.007812 99.535156 169.289062 98.832031 C 169.617188 98 169.441406 97.238281 169.316406 96.386719 C 169.132812 95.132812 169.550781 93.933594 170.632812 93.253906 C 170.332031 92.75 169.976562 92.289062 169.570312 91.867188 C 168.832031 92.21875 168.078125 92.554688 167.296875 92.824219 C 166.425781 93.117188 165.492188 93.492188 164.890625 92.574219 C 164.28125 91.652344 163.8125 90.585938 163.332031 89.589844 C 162.851562 88.578125 162.394531 87.550781 161.976562 86.507812 C 161.773438 86.011719 161.46875 85.449219 161.527344 84.894531 C 161.574219 84.484375 161.820312 84.128906 162.027344 83.78125 C 162.328125 83.292969 162.636719 82.789062 162.777344 82.21875 C 162.90625 81.683594 162.8125 81.160156 162.675781 80.632812 C 162.597656 80.34375 162.53125 80.054688 162.46875 79.769531 C 161.105469 80.199219 159.835938 79.234375 159.207031 78.058594 C 158.597656 76.921875 158.433594 75.589844 158.679688 74.324219 C 158.894531 73.191406 159.460938 72.160156 160.285156 71.355469 C 160.792969 70.859375 161.320312 70.417969 161.667969 69.78125 C 161.980469 69.207031 162.175781 68.5625 162.449219 67.960938 C 163.492188 65.695312 165.539062 63.867188 168.078125 63.597656 C 169.414062 63.457031 170.585938 63.832031 171.734375 64.488281 C 172.46875 64.90625 173.132812 65.050781 173.972656 64.9375 C 174.664062 64.84375 175.34375 64.722656 176.046875 64.710938 C 177.296875 64.691406 178.59375 64.957031 179.589844 65.742188 C 180.011719 66.070312 180.359375 66.472656 180.621094 66.921875 C 180.679688 66.90625 180.753906 66.914062 180.828125 66.960938 C 182.136719 67.71875 183.5 68.429688 184.757812 69.285156 C 185.761719 69.96875 186.601562 70.832031 187.183594 71.90625 C 188.199219 73.800781 188.320312 75.957031 187.632812 77.972656 C 187.25 79.078125 186.851562 80.15625 187.25 81.316406 C 187.558594 82.195312 188.160156 82.9375 188.695312 83.679688 C 189.234375 84.425781 189.777344 85.199219 190.023438 86.105469 C 190.257812 86.976562 190.230469 87.96875 189.90625 88.804688 C 189.605469 89.59375 189.003906 90.386719 188.234375 90.78125 C 188.113281 92.105469 187.726562 93.695312 186.507812 94.378906 C 185.714844 94.828125 184.777344 95.015625 183.855469 95.035156 C 184.023438 95.269531 184.167969 95.515625 184.316406 95.769531 C 184.949219 96.890625 185.484375 98.082031 186.035156 99.246094 C 186.589844 100.398438 187.117188 101.570312 187.605469 102.757812 C 188.609375 105.234375 189.324219 107.789062 189.703125 110.433594 C 190.078125 113.039062 190.226562 115.679688 190.285156 118.304688 C 190.304688 119.320312 190.183594 120.347656 190.066406 121.359375 C 189.710938 124.460938 189.183594 127.554688 188.5 130.601562 C 188.199219 131.960938 187.871094 133.316406 187.429688 134.640625 C 187.175781 135.390625 186.902344 136.363281 186.300781 136.929688 Z M 172.070312 94.988281 C 172.324219 94.914062 172.578125 94.832031 172.832031 94.746094 C 173.472656 94.53125 174.101562 94.285156 174.710938 93.996094 C 175.804688 93.492188 176.847656 92.878906 177.832031 92.179688 C 177.703125 91.773438 177.691406 91.355469 177.683594 90.902344 C 177.679688 90.164062 177.261719 89.75 176.734375 89.292969 C 176.261719 88.890625 175.800781 88.476562 175.433594 87.96875 C 175.0625 87.457031 174.910156 86.914062 174.816406 86.292969 C 174.75 85.835938 174.703125 85.382812 174.785156 84.917969 C 174.296875 85.222656 173.746094 85.429688 173.164062 85.523438 C 172.746094 85.589844 172.5625 84.945312 172.984375 84.878906 C 174.007812 84.710938 174.902344 84.164062 175.503906 83.371094 C 175.523438 83.351562 175.539062 83.324219 175.550781 83.304688 C 175.566406 83.292969 175.578125 83.285156 175.585938 83.273438 C 175.953125 82.757812 176.199219 82.140625 176.261719 81.46875 C 176.335938 80.71875 176.253906 79.582031 175.503906 79.171875 C 174.769531 78.785156 173.882812 79.117188 173.339844 79.660156 C 173.292969 79.714844 173.234375 79.734375 173.179688 79.75 C 172.328125 80.222656 171.332031 80.484375 170.417969 80.015625 C 169.9375 79.769531 169.570312 79.351562 169.347656 78.863281 C 169.140625 78.375 169.0625 77.753906 168.671875 77.371094 C 168.246094 76.957031 167.558594 76.941406 167.007812 76.792969 C 166.5 76.652344 166.027344 76.414062 165.613281 76.085938 C 164.722656 75.382812 164.226562 74.371094 164.140625 73.332031 C 163.277344 74.796875 162.84375 76.5 162.917969 78.214844 C 162.964844 79.207031 163.292969 80.097656 163.453125 81.0625 C 163.613281 81.992188 163.351562 82.824219 162.898438 83.632812 C 162.671875 84.027344 162.269531 84.476562 162.195312 84.941406 C 162.136719 85.382812 162.457031 85.929688 162.625 86.332031 C 162.996094 87.269531 163.414062 88.203125 163.847656 89.121094 C 163.878906 89.097656 163.90625 89.078125 163.941406 89.074219 C 163.992188 89.050781 164.054688 89.039062 164.109375 89.011719 C 164.113281 89.011719 164.160156 88.992188 164.160156 88.992188 C 164.179688 88.984375 164.199219 88.980469 164.222656 88.964844 C 164.320312 88.917969 164.414062 88.863281 164.507812 88.804688 C 164.527344 88.792969 164.554688 88.769531 164.582031 88.75 C 164.582031 88.75 164.617188 88.730469 164.621094 88.722656 C 164.664062 88.691406 164.710938 88.65625 164.742188 88.617188 C 164.828125 88.542969 164.902344 88.464844 164.976562 88.382812 C 164.988281 88.371094 165.003906 88.347656 165.015625 88.335938 L 165.050781 88.289062 C 165.082031 88.242188 165.117188 88.195312 165.144531 88.148438 C 165.203125 88.054688 165.265625 87.953125 165.3125 87.847656 C 165.3125 87.839844 165.332031 87.792969 165.332031 87.792969 C 165.335938 87.773438 165.351562 87.753906 165.359375 87.734375 C 165.371094 87.679688 165.390625 87.625 165.40625 87.578125 C 165.417969 87.523438 165.429688 87.472656 165.445312 87.417969 C 165.453125 87.382812 165.457031 87.359375 165.457031 87.332031 C 165.457031 87.324219 165.464844 87.3125 165.464844 87.296875 C 165.464844 87.289062 165.464844 87.285156 165.472656 87.277344 C 165.472656 87.269531 165.472656 87.269531 165.472656 87.269531 C 165.503906 87.097656 165.613281 86.976562 165.800781 86.960938 C 165.964844 86.957031 166.152344 87.125 166.132812 87.296875 C 166 88.417969 165.21875 89.378906 164.132812 89.707031 C 164.523438 90.492188 164.917969 91.269531 165.34375 92.027344 C 165.492188 92.28125 165.613281 92.515625 165.945312 92.507812 C 166.160156 92.503906 166.375 92.414062 166.574219 92.355469 C 167.027344 92.214844 167.484375 92.054688 167.925781 91.878906 C 169.742188 91.167969 171.460938 90.175781 172.984375 88.957031 C 173.320312 88.699219 173.792969 89.167969 173.460938 89.433594 C 172.4375 90.246094 171.339844 90.953125 170.191406 91.558594 C 171.078125 92.527344 171.734375 93.707031 172.070312 94.988281 Z M 171.289062 94.753906 C 171.179688 94.847656 171.046875 94.972656 171.207031 95.085938 C 171.261719 95.113281 171.328125 95.121094 171.40625 95.121094 C 171.375 94.992188 171.328125 94.875 171.289062 94.753906 Z M 163.210938 134.257812 C 163.285156 134.292969 163.359375 134.320312 163.433594 134.351562 L 163.433594 125.851562 C 163.367188 125.851562 163.304688 125.847656 163.238281 125.839844 C 162.8125 125.820312 162.8125 125.148438 163.238281 125.167969 C 163.304688 125.175781 163.367188 125.183594 163.433594 125.183594 L 163.433594 114.292969 C 163.433594 114.292969 163.433594 114.292969 163.433594 114.285156 L 163.433594 112.363281 L 131.257812 112.363281 L 131.257812 135.023438 L 163.304688 135.023438 C 163.164062 134.960938 163.019531 134.910156 162.878906 134.839844 C 162.488281 134.660156 162.824219 134.085938 163.210938 134.257812 Z M 185.859375 136.429688 C 186.261719 136.019531 186.496094 135.296875 186.6875 134.746094 C 187.078125 133.644531 187.371094 132.503906 187.644531 131.359375 C 188.226562 128.898438 188.679688 126.410156 189.054688 123.902344 C 189.328125 122.082031 189.644531 120.191406 189.617188 118.34375 C 189.589844 116.917969 189.542969 115.492188 189.4375 114.058594 L 189.4375 114.050781 C 189.242188 111.332031 188.847656 108.632812 188.066406 106.03125 C 187.453125 104.007812 186.621094 102.058594 185.726562 100.152344 C 185.285156 99.207031 184.832031 98.269531 184.371094 97.339844 C 183.976562 96.527344 183.5625 95.722656 183.003906 95.007812 C 182.265625 94.941406 181.496094 94.738281 180.945312 94.242188 C 180.914062 94.214844 180.894531 94.183594 180.878906 94.148438 C 180.851562 94.148438 180.832031 94.15625 180.8125 94.164062 C 179.722656 94.277344 178.667969 93.726562 178.113281 92.796875 C 176.753906 93.742188 175.296875 94.53125 173.753906 95.121094 C 172.984375 95.414062 172.015625 95.878906 171.171875 95.757812 C 170.820312 95.703125 170.472656 95.503906 170.429688 95.113281 C 170.398438 94.765625 170.632812 94.464844 170.867188 94.230469 C 170.933594 94.167969 171 94.144531 171.074219 94.144531 C 171.03125 94.042969 170.980469 93.949219 170.933594 93.847656 C 170.382812 94.222656 169.996094 94.804688 169.929688 95.484375 C 169.855469 96.328125 170.222656 97.152344 170.164062 97.996094 C 170.070312 99.402344 169.042969 100.613281 168.351562 101.785156 C 167.609375 103.058594 166.929688 104.363281 166.332031 105.710938 C 165.136719 108.429688 164.328125 111.324219 164.101562 114.285156 L 164.101562 125.222656 C 166.359375 125.355469 168.621094 125.558594 170.871094 125.851562 C 171.546875 125.941406 172.296875 126.007812 173.03125 126.132812 C 173.472656 124.25 173.78125 122.34375 174.054688 120.425781 C 174.921875 114.285156 175.546875 107.765625 179.214844 102.542969 C 179.460938 102.195312 180.039062 102.53125 179.789062 102.878906 C 178.800781 104.289062 178.011719 105.824219 177.402344 107.433594 C 175.105469 113.46875 175.136719 120.039062 173.6875 126.273438 C 174.730469 126.523438 175.707031 126.9375 176.359375 127.78125 C 176.628906 128.117188 176.152344 128.597656 175.886719 128.257812 C 175.304688 127.515625 174.457031 127.160156 173.554688 126.945312 C 172.515625 126.703125 171.441406 126.589844 170.382812 126.457031 C 168.292969 126.199219 166.199219 126.019531 164.101562 125.898438 L 164.101562 134.632812 C 166.574219 135.6875 169.167969 136.449219 171.820312 136.871094 C 173.140625 137.078125 174.476562 137.207031 175.8125 137.246094 C 177.101562 137.292969 178.488281 137.347656 179.761719 137.125 C 181.132812 136.882812 181.433594 135.632812 181.816406 134.480469 C 182.25 133.140625 182.671875 131.792969 183.078125 130.449219 C 184.695312 125.050781 186.0625 119.578125 187.15625 114.050781 C 187.230469 113.683594 187.730469 113.777344 187.804688 114.082031 C 187.8125 114.105469 187.8125 114.128906 187.8125 114.15625 C 187.8125 114.183594 187.8125 114.203125 187.804688 114.230469 C 187.152344 117.519531 186.402344 120.800781 185.558594 124.050781 C 184.816406 126.910156 184.007812 129.75 183.125 132.570312 C 182.898438 133.292969 182.664062 134.019531 182.429688 134.734375 C 182.25 135.289062 182.082031 135.859375 181.816406 136.375 C 181.753906 136.496094 181.6875 136.609375 181.617188 136.71875 C 183.027344 136.625 184.441406 136.523438 185.859375 136.429688 Z M 185.859375 136.429688 " fill-opacity="1" fill-rule="nonzero"/><path fill="#f4f4ed" d="M 26.238281 151.324219 C 25.972656 151.667969 25.503906 151.191406 25.765625 150.851562 C 26.574219 149.800781 27.390625 148.753906 28.230469 147.722656 C 31.132812 144.160156 34.410156 140.75 38.613281 138.75 C 39 138.566406 39.339844 139.144531 38.949219 139.328125 C 37.789062 139.882812 36.683594 140.542969 35.640625 141.292969 C 31.902344 143.992188 29.03125 147.707031 26.238281 151.324219 Z M 30.824219 143.457031 C 30.886719 143.878906 31.53125 143.699219 31.46875 143.277344 C 30.347656 135.957031 28.257812 128.800781 25.269531 122.027344 C 24.429688 120.121094 23.515625 118.246094 22.535156 116.40625 C 22.335938 116.027344 21.757812 116.363281 21.960938 116.746094 C 25.414062 123.226562 28.003906 130.15625 29.652344 137.316406 C 30.117188 139.347656 30.507812 141.394531 30.824219 143.457031 Z M 42.589844 151.957031 C 40.28125 157.046875 36.492188 161.28125 31.75 164.214844 C 30.265625 165.136719 28.714844 165.949219 27.148438 166.726562 C 26.761719 166.917969 27.101562 167.496094 27.488281 167.304688 C 30.21875 165.945312 32.902344 164.464844 35.28125 162.535156 C 37.421875 160.796875 39.292969 158.738281 40.839844 156.457031 C 41.734375 155.140625 42.511719 153.746094 43.167969 152.292969 C 43.34375 151.90625 42.769531 151.5625 42.589844 151.957031 Z M 78.675781 152.007812 C 76.941406 149.019531 76.105469 145.582031 76.261719 142.128906 C 76.28125 141.699219 75.613281 141.699219 75.59375 142.128906 C 75.429688 145.695312 76.308594 149.261719 78.101562 152.34375 C 78.316406 152.71875 78.894531 152.382812 78.675781 152.007812 Z M 69.78125 109.707031 C 69.875 109.285156 69.230469 109.105469 69.136719 109.527344 C 68.621094 111.9375 69.167969 114.519531 70.660156 116.484375 C 70.917969 116.824219 71.5 116.488281 71.238281 116.144531 C 69.851562 114.320312 69.300781 111.949219 69.78125 109.707031 Z M 32.660156 112.984375 C 33.621094 114.0625 34.640625 115.09375 35.636719 116.140625 C 36.128906 116.664062 36.636719 117.175781 37.117188 117.710938 C 37.347656 117.964844 37.582031 118.25 37.667969 118.589844 C 37.773438 118.988281 37.625 119.402344 37.488281 119.773438 C 36.980469 121.183594 36.425781 122.578125 35.902344 123.980469 C 35.667969 124.605469 35.441406 125.265625 35.492188 125.941406 C 35.542969 126.585938 35.824219 127.171875 36.105469 127.738281 C 37.625 130.796875 39.152344 133.84375 40.675781 136.898438 C 40.871094 137.285156 41.445312 136.945312 41.253906 136.558594 C 39.941406 133.925781 38.625 131.289062 37.3125 128.65625 C 36.988281 128.007812 36.613281 127.367188 36.355469 126.691406 C 36.089844 126.003906 36.136719 125.363281 36.363281 124.671875 C 36.8125 123.285156 37.390625 121.925781 37.90625 120.5625 C 38.136719 119.949219 38.4375 119.304688 38.355469 118.632812 C 38.28125 118.0625 37.921875 117.597656 37.546875 117.1875 C 36.554688 116.109375 35.535156 115.0625 34.53125 114 C 33.65625 113.078125 32.691406 112.171875 32.039062 111.070312 C 31.726562 110.539062 31.488281 109.953125 31.453125 109.332031 C 31.414062 108.671875 31.601562 108.03125 31.808594 107.410156 C 32.847656 104.273438 34.050781 101.183594 35.355469 98.144531 C 35.527344 97.753906 34.949219 97.414062 34.78125 97.808594 C 33.609375 100.53125 32.53125 103.292969 31.550781 106.09375 C 31.121094 107.332031 30.585938 108.605469 30.867188 109.9375 C 31.113281 111.113281 31.878906 112.109375 32.660156 112.984375 Z M 62.378906 105.824219 C 61.578125 104.640625 60.78125 103.460938 59.980469 102.28125 C 59.0625 100.921875 58.148438 99.566406 57.230469 98.210938 C 57 97.875 56.421875 98.183594 56.652344 98.523438 L 61.179688 105.21875 C 62.53125 107.214844 64.226562 109.277344 64.734375 111.636719 C 65 112.886719 64.886719 114.210938 64.179688 115.316406 C 63.960938 115.660156 64.535156 115.972656 64.757812 115.628906 C 66.058594 113.59375 65.539062 111.136719 64.476562 109.121094 C 63.871094 107.972656 63.109375 106.902344 62.378906 105.824219 Z M 62.378906 105.824219 " fill-opacity="1" fill-rule="nonzero"/><path fill="#009b5f" d="M 125.15625 147.214844 C 125.308594 147.609375 125.367188 148.035156 125.335938 148.453125 L 123.011719 178.996094 C 122.84375 181.222656 120.992188 182.941406 118.761719 182.941406 L 107.679688 182.941406 C 105.4375 182.941406 103.578125 181.203125 103.429688 178.960938 L 101.363281 148.320312 C 101.335938 147.886719 101.402344 147.457031 101.5625 147.058594 C 101.5625 147.058594 105.605469 137.042969 106.703125 134.398438 C 106.871094 133.996094 106.839844 133.535156 106.621094 133.160156 L 103.285156 127.371094 C 102.746094 126.433594 103.421875 125.261719 104.5 125.261719 L 122.199219 125.261719 C 123.28125 125.261719 123.957031 126.433594 123.414062 127.371094 L 120.160156 133.019531 C 119.941406 133.398438 119.914062 133.855469 120.078125 134.261719 C 121.183594 136.929688 125.15625 147.214844 125.15625 147.214844 Z M 173.585938 146.171875 C 173.585938 146.171875 169.613281 135.886719 168.507812 133.21875 C 168.339844 132.816406 168.371094 132.355469 168.589844 131.976562 L 171.84375 126.328125 C 172.382812 125.390625 171.707031 124.21875 170.628906 124.21875 L 152.929688 124.21875 C 151.847656 124.21875 151.175781 125.390625 151.714844 126.328125 L 155.050781 132.117188 C 155.265625 132.496094 155.296875 132.953125 155.132812 133.355469 C 154.035156 136 149.992188 146.015625 149.992188 146.015625 C 149.851562 146.367188 149.792969 146.746094 149.796875 147.125 C 149.765625 146.953125 149.730469 146.78125 149.667969 146.621094 C 149.667969 146.621094 145.695312 136.335938 144.589844 133.664062 C 144.425781 133.261719 144.453125 132.804688 144.671875 132.421875 L 147.925781 126.773438 C 148.46875 125.839844 147.792969 124.667969 146.710938 124.667969 L 129.011719 124.667969 C 127.933594 124.667969 127.257812 125.839844 127.796875 126.773438 L 131.132812 132.5625 C 131.351562 132.941406 131.382812 133.398438 131.214844 133.804688 C 130.117188 136.445312 126.074219 146.460938 126.074219 146.460938 C 125.914062 146.863281 125.847656 147.292969 125.875 147.722656 L 127.941406 178.367188 C 128.089844 180.605469 129.949219 182.347656 132.191406 182.347656 L 143.273438 182.347656 C 145.503906 182.347656 147.355469 180.628906 147.523438 178.402344 L 149.839844 147.976562 L 151.855469 177.917969 C 152.007812 180.160156 153.867188 181.902344 156.109375 181.902344 L 167.191406 181.902344 C 169.417969 181.902344 171.269531 180.183594 171.441406 177.957031 L 173.765625 147.414062 C 173.796875 146.992188 173.734375 146.566406 173.585938 146.171875 Z M 173.585938 146.171875 " fill-opacity="1" fill-rule="nonzero"/><path fill="#000000" d="M 149.378906 147.554688 C 148.363281 148.308594 146.941406 148.574219 145.730469 148.808594 C 142.1875 149.496094 138.507812 149.65625 134.910156 149.554688 C 133.195312 149.507812 131.480469 149.386719 129.789062 149.101562 C 128.613281 148.902344 127.335938 148.648438 126.3125 148.003906 C 125.949219 147.773438 126.285156 147.195312 126.652344 147.425781 C 127.789062 148.140625 129.257812 148.363281 130.5625 148.546875 C 134.070312 149.046875 137.695312 149.003906 141.21875 148.722656 C 142.847656 148.59375 144.480469 148.402344 146.078125 148.054688 C 147.074219 147.839844 148.203125 147.597656 149.042969 146.976562 C 149.390625 146.722656 149.722656 147.304688 149.378906 147.554688 Z M 137.988281 133.539062 C 136.011719 133.550781 134.011719 133.464844 132.066406 133.101562 C 131.644531 133.023438 131.464844 133.667969 131.890625 133.746094 C 133.894531 134.125 135.953125 134.222656 137.988281 134.210938 C 140.03125 134.199219 142.082031 134.074219 144.101562 133.746094 C 144.523438 133.679688 144.34375 133.03125 143.921875 133.101562 C 141.964844 133.417969 139.96875 133.53125 137.988281 133.539062 Z M 128.191406 125.988281 C 130.554688 126.808594 133.152344 127.015625 135.640625 127.097656 C 138.347656 127.1875 141.085938 127.070312 143.765625 126.648438 C 144.894531 126.472656 146.042969 126.242188 147.109375 125.8125 C 147.503906 125.65625 147.328125 125.007812 146.929688 125.167969 C 144.871094 125.996094 142.53125 126.207031 140.335938 126.351562 C 137.617188 126.53125 134.863281 126.5 132.15625 126.164062 C 130.875 126.003906 129.589844 125.765625 128.367188 125.339844 C 127.960938 125.199219 127.785156 125.847656 128.191406 125.988281 Z M 150.230469 147.558594 C 149.867188 147.328125 150.203125 146.746094 150.566406 146.976562 C 151.703125 147.695312 153.175781 147.914062 154.480469 148.101562 C 157.988281 148.601562 161.609375 148.558594 165.132812 148.277344 C 166.761719 148.148438 168.394531 147.957031 169.992188 147.609375 C 170.992188 147.390625 172.121094 147.152344 172.957031 146.53125 C 173.304688 146.277344 173.640625 146.855469 173.296875 147.109375 C 172.277344 147.859375 170.855469 148.128906 169.644531 148.363281 C 166.105469 149.046875 162.425781 149.210938 158.824219 149.109375 C 157.113281 149.058594 155.394531 148.9375 153.707031 148.65625 C 152.53125 148.457031 151.253906 148.203125 150.230469 147.558594 Z M 155.804688 133.300781 C 155.382812 133.222656 155.5625 132.574219 155.984375 132.65625 C 157.929688 133.019531 159.929688 133.105469 161.90625 133.09375 C 163.886719 133.085938 165.882812 132.972656 167.839844 132.65625 C 168.261719 132.585938 168.441406 133.234375 168.015625 133.300781 C 166 133.628906 163.949219 133.753906 161.90625 133.765625 C 159.871094 133.773438 157.8125 133.675781 155.804688 133.300781 Z M 152.105469 125.542969 C 151.703125 125.402344 151.875 124.753906 152.285156 124.894531 C 153.507812 125.320312 154.792969 125.554688 156.074219 125.714844 C 158.78125 126.054688 161.535156 126.085938 164.253906 125.90625 C 166.449219 125.761719 168.789062 125.550781 170.847656 124.722656 C 171.246094 124.558594 171.417969 125.207031 171.023438 125.367188 C 169.957031 125.796875 168.8125 126.027344 167.683594 126.203125 C 165.003906 126.625 162.265625 126.742188 159.554688 126.652344 C 157.070312 126.566406 154.472656 126.359375 152.105469 125.542969 Z M 101.800781 148.597656 C 101.4375 148.367188 101.773438 147.789062 102.140625 148.019531 C 103.277344 148.738281 104.746094 148.957031 106.050781 149.144531 C 109.558594 149.644531 113.183594 149.597656 116.707031 149.316406 C 118.335938 149.1875 119.96875 148.996094 121.566406 148.648438 C 122.5625 148.433594 123.691406 148.191406 124.53125 147.574219 C 124.878906 147.316406 125.210938 147.898438 124.867188 148.152344 C 123.851562 148.902344 122.429688 149.167969 121.21875 149.402344 C 117.675781 150.089844 113.996094 150.253906 110.398438 150.152344 C 108.6875 150.101562 106.96875 149.980469 105.277344 149.695312 C 104.101562 149.5 102.824219 149.246094 101.800781 148.597656 Z M 107.378906 134.34375 C 106.953125 134.261719 107.136719 133.617188 107.554688 133.695312 C 109.5 134.0625 111.5 134.144531 113.476562 134.136719 C 115.457031 134.125 117.453125 134.015625 119.410156 133.695312 C 119.832031 133.628906 120.011719 134.273438 119.589844 134.34375 C 117.570312 134.667969 115.519531 134.792969 113.476562 134.804688 C 111.441406 134.816406 109.382812 134.71875 107.378906 134.34375 Z M 103.679688 126.582031 C 103.273438 126.441406 103.449219 125.796875 103.855469 125.9375 C 105.078125 126.359375 106.363281 126.597656 107.644531 126.757812 C 110.351562 127.097656 113.105469 127.125 115.824219 126.949219 C 118.019531 126.804688 120.359375 126.59375 122.417969 125.761719 C 122.816406 125.601562 122.992188 126.25 122.597656 126.410156 C 121.53125 126.839844 120.382812 127.066406 119.253906 127.246094 C 116.574219 127.667969 113.835938 127.78125 111.128906 127.691406 C 108.640625 127.609375 106.042969 127.402344 103.679688 126.582031 Z M 103.679688 126.582031 " fill-opacity="1" fill-rule="nonzero"/></svg>